<?xml version="1.0" standalone="no"?>
<!DOCTYPE svg PUBLIC "-//W3C//DTD SVG 20010904//EN"
 "http://www.w3.org/TR/2001/REC-SVG-20010904/DTD/svg10.dtd">
<svg version="1.0" xmlns="http://www.w3.org/2000/svg"
 width="2614.000000pt" height="2614.000000pt" viewBox="0 0 2614.000000 2614.000000"
 preserveAspectRatio="xMidYMid meet">
<metadata>
Created by potrace 1.11, written by Peter Selinger 2001-2013
</metadata>
<g transform="translate(0.000000,2614.000000) scale(0.100000,-0.100000)"
fill="#000000" stroke="none">
<path d="M14205 22419 c-59 -8 -101 -23 -121 -44 -9 -8 -24 -15 -35 -15 -10 0
-47 -28 -83 -62 -78 -78 -116 -157 -143 -298 -12 -69 -42 -163 -56 -176 -6 -6
-110 57 -127 76 -3 3 -51 35 -108 70 -95 60 -286 191 -322 222 -8 7 -33 37
-55 66 -44 60 -76 80 -136 88 -73 10 -99 -1 -179 -79 -42 -39 -118 -110 -169
-157 -52 -47 -99 -89 -105 -95 -76 -69 -266 -195 -294 -195 -5 0 -12 14 -16
30 -3 17 -21 64 -40 106 -117 252 -276 380 -526 422 -212 36 -338 16 -459 -72
-110 -81 -145 -140 -199 -338 -27 -102 -36 -153 -36 -218 -1 -78 2 -91 35
-160 47 -97 107 -176 211 -274 241 -230 230 -217 230 -271 0 -23 -15 -53 -50
-103 -28 -39 -63 -95 -78 -124 -15 -29 -44 -80 -65 -114 -22 -34 -39 -65 -39
-70 -1 -5 -9 -27 -20 -49 -11 -22 -19 -49 -20 -60 0 -11 -13 -47 -28 -80 -16
-33 -39 -91 -52 -130 -12 -38 -26 -74 -30 -80 -12 -15 -75 -219 -98 -315 -38
-153 -47 -242 -47 -430 1 -163 7 -225 32 -318 20 -76 22 -88 33 -152 18 -104
133 -496 151 -515 5 -5 9 -17 9 -27 0 -22 18 -29 -256 101 -288 135 -721 317
-825 345 -121 33 -272 32 -340 -3 -60 -31 -88 -59 -110 -106 -21 -47 -18 -130
7 -191 16 -39 21 -52 68 -157 14 -31 38 -85 52 -120 74 -177 157 -310 260
-418 65 -69 174 -201 174 -210 0 -13 70 -109 125 -173 27 -31 84 -83 125 -115
249 -192 489 -304 770 -356 125 -23 465 -24 636 -1 164 22 322 99 411 200 34
39 62 47 64 19 1 -10 3 -124 4 -253 1 -129 5 -246 9 -260 3 -14 9 -43 11 -65
3 -22 7 -51 10 -65 3 -14 7 -36 10 -50 3 -14 7 -36 10 -50 2 -14 7 -45 10 -70
14 -107 27 -164 55 -245 11 -33 23 -71 25 -85 17 -94 80 -262 146 -391 37 -70
116 -162 174 -203 62 -43 221 -59 321 -32 80 21 183 97 233 171 94 139 227
577 256 845 3 30 8 74 11 97 22 176 25 452 6 583 -10 68 -3 104 21 113 20 7
102 -50 160 -112 91 -98 162 -135 328 -172 127 -28 182 -34 309 -33 180 0 275
13 483 65 155 39 201 57 366 143 251 132 394 242 488 375 26 36 49 68 52 71
59 53 234 276 306 392 17 26 55 84 86 128 48 68 99 176 115 243 2 9 6 27 9 40
16 65 1 243 -25 312 -12 33 -58 73 -110 97 -39 19 -62 22 -170 21 -112 -1
-135 -4 -215 -31 -49 -17 -128 -42 -175 -57 -72 -23 -383 -169 -415 -195 -13
-10 -410 -210 -418 -210 -4 0 9 26 28 58 62 104 111 264 141 467 12 83 10 742
-2 820 -7 39 -15 93 -18 120 -4 28 -9 64 -11 80 -2 17 -7 59 -10 95 -5 64 -35
178 -82 315 -59 170 -210 445 -300 547 -33 36 -53 68 -53 83 0 44 81 181 153
260 149 162 278 377 322 536 27 98 12 217 -41 321 -32 63 -120 156 -187 196
-133 80 -395 133 -552 111z m-1245 -869 c24 0 23 55 21 -820 -1 -117 1 -140
16 -220 5 -25 7 -81 5 -125 -3 -79 -4 -182 -2 -240 0 -16 0 -59 0 -95 0 -36 2
-94 4 -130 3 -36 5 -70 6 -77 0 -14 75 16 195 77 78 40 234 107 266 115 9 2
34 12 55 23 22 11 64 27 94 37 30 9 87 32 125 51 39 18 120 51 180 73 140 50
336 130 355 146 19 16 101 57 104 53 2 -2 8 -17 14 -34 10 -31 2 -54 -20 -54
-4 0 -50 -20 -100 -44 -101 -49 -340 -144 -455 -182 -40 -13 -133 -53 -207
-88 -74 -36 -161 -74 -193 -84 -32 -11 -123 -51 -203 -90 -80 -38 -155 -72
-167 -76 -28 -9 -29 -27 -3 -51 11 -10 20 -23 20 -30 0 -11 98 -182 167 -290
120 -188 155 -246 183 -299 17 -32 49 -84 71 -115 113 -161 270 -400 331 -505
l69 -119 -22 -24 c-13 -12 -27 -23 -33 -23 -6 0 -26 33 -45 73 -19 40 -55 104
-80 142 -25 39 -48 75 -50 80 -2 6 -21 36 -43 67 -21 31 -38 62 -38 67 0 6 -4
11 -9 11 -5 0 -24 23 -42 51 -18 28 -38 56 -44 63 -7 6 -28 41 -47 78 -31 58
-82 134 -99 148 -3 3 -17 25 -30 50 -14 25 -37 63 -52 85 -77 111 -106 159
-187 305 -54 99 -94 159 -108 165 -13 5 -51 -31 -52 -49 0 -6 -20 -35 -43 -65
-24 -31 -50 -67 -57 -80 -7 -14 -20 -33 -29 -42 -9 -10 -36 -49 -61 -89 -49
-77 -154 -236 -237 -358 -29 -42 -53 -80 -53 -85 0 -7 -90 -156 -186 -308 -44
-70 -148 -218 -154 -219 -3 0 -17 10 -32 23 l-27 22 69 85 c38 47 69 89 70 93
0 5 24 46 54 91 54 82 63 97 126 211 18 33 48 79 66 101 18 23 45 63 59 90 28
53 56 98 183 292 46 70 94 138 106 152 39 44 116 180 116 206 0 2 -12 4 -27 4
-14 0 -49 7 -77 15 -88 26 -265 65 -295 65 -16 0 -76 11 -133 25 -128 32 -137
34 -168 41 -14 3 -54 7 -90 9 -61 4 -86 7 -150 20 -14 3 -41 7 -60 10 -160 21
-168 23 -178 29 -5 3 -22 8 -38 11 -16 3 -54 11 -84 18 l-55 13 -1 46 -1 46
46 -14 c115 -36 284 -71 379 -79 90 -8 147 -17 207 -31 33 -8 87 -17 120 -20
33 -3 63 -8 67 -10 4 -2 26 -7 50 -10 24 -3 66 -9 93 -14 28 -6 66 -12 85 -15
19 -2 73 -15 119 -29 94 -27 189 -41 220 -31 20 6 21 11 14 113 -5 87 -8 1212
-2 1247 0 6 -2 52 -5 103 -3 54 -2 92 4 92 5 0 2 16 -6 35 -15 36 -19 87 -7
99 4 3 13 4 21 1 7 -3 22 -5 32 -5z m915 -635 c301 -293 335 -326 335 -335 0
-5 -208 -86 -625 -245 -104 -40 -250 -95 -324 -124 -74 -28 -135 -50 -137 -48
-5 4 42 195 105 423 32 121 89 336 126 479 36 143 68 266 71 274 2 8 33 -15
83 -65 43 -44 208 -205 366 -359z m-1467 284 c2 -13 11 -69 22 -124 10 -55 21
-111 24 -125 6 -34 63 -285 76 -335 6 -22 13 -49 15 -61 18 -82 103 -343 125
-385 6 -10 7 -19 4 -19 -9 0 -142 40 -169 51 -11 4 -162 51 -335 104 -173 53
-379 117 -458 142 l-142 46 52 34 c29 19 55 38 58 42 6 8 94 88 194 176 77 68
201 185 410 387 56 54 106 96 111 94 6 -1 11 -13 13 -27z m2053 -1166 c0 -21
2 -58 4 -83 1 -25 6 -97 9 -160 4 -63 9 -149 12 -190 2 -41 5 -214 6 -385 1
-388 11 -359 -155 -488 -54 -43 -100 -77 -103 -77 -2 0 -19 17 -37 38 -167
187 -410 459 -456 508 -31 33 -101 109 -156 169 -55 59 -139 149 -187 199 -47
50 -85 92 -85 92 1 1 25 5 52 9 79 10 310 96 860 319 116 47 216 85 223 86 7
0 12 -14 13 -37z m-2752 -264 c325 -66 551 -110 585 -114 19 -3 56 -9 81 -15
26 -6 69 -11 96 -12 27 0 49 -2 49 -5 0 -2 -12 -16 -27 -31 -25 -25 -61 -64
-234 -263 -48 -54 -165 -194 -316 -376 -19 -23 -57 -70 -85 -105 -27 -35 -53
-64 -58 -66 -4 -2 -46 34 -91 80 -46 46 -116 109 -154 139 l-71 56 -13 84
c-19 114 -18 149 4 324 2 17 7 64 10 105 3 41 8 95 12 120 3 25 7 61 8 80 2
19 3 37 4 39 1 2 13 0 27 -3 15 -4 92 -20 173 -37z m1321 -634 c0 -1 25 -44
55 -94 30 -51 55 -94 55 -97 0 -3 9 -18 19 -32 21 -31 421 -818 421 -831 0
-10 -176 -97 -245 -121 -30 -10 -85 -22 -122 -25 -37 -4 -81 -9 -98 -12 -35
-5 -227 -5 -268 1 -15 2 -33 9 -40 14 -7 5 -19 9 -27 9 -29 0 -195 34 -245 50
-46 14 -121 50 -153 71 -9 6 -6 20 14 58 14 27 36 69 49 94 27 50 185 380 185
385 0 1 20 45 44 96 24 52 65 146 91 209 25 63 76 174 113 247 l66 132 43 -76
c24 -41 43 -76 43 -78z m-3295 -635 c3 -5 -1 -10 -10 -10 -9 0 -13 5 -10 10 3
6 8 10 10 10 2 0 7 -4 10 -10z"/>
<path d="M21830 20928 c-89 -11 -125 -25 -224 -85 -33 -21 -78 -47 -99 -58
-105 -57 -165 -128 -202 -240 -39 -115 -45 -200 -35 -500 6 -187 -10 -205
-212 -231 -15 -2 -44 -10 -63 -18 -20 -9 -68 -22 -108 -30 -78 -16 -192 -59
-218 -82 -8 -7 -31 -19 -50 -25 -30 -9 -126 -52 -309 -137 -96 -44 -262 -144
-361 -219 -167 -123 -324 -296 -408 -448 -19 -32 -51 -82 -72 -111 -22 -28
-39 -53 -39 -57 0 -3 -23 -45 -51 -94 -92 -157 -152 -276 -156 -307 -5 -42
-20 -55 -31 -25 -5 13 -35 96 -67 184 -70 198 -275 713 -323 815 -60 128 -109
194 -197 266 -65 52 -103 67 -175 67 -102 0 -163 -57 -218 -206 -21 -57 -23
-70 -12 -77 8 -5 11 -13 6 -17 -5 -4 -11 -2 -13 5 -9 23 -19 12 -32 -35 -8
-27 -17 -52 -21 -58 -16 -23 -97 -262 -105 -309 -3 -14 -8 -38 -11 -53 -3 -16
-7 -64 -10 -108 -2 -44 -6 -114 -8 -156 -4 -77 -13 -143 -23 -169 -3 -8 -7
-22 -8 -30 -1 -8 -5 -33 -10 -55 -13 -64 -19 -226 -11 -270 2 -11 7 -42 10
-70 41 -305 168 -609 344 -825 69 -85 287 -295 384 -370 85 -66 197 -123 269
-135 19 -3 50 -10 69 -14 19 -4 61 -7 92 -5 39 2 60 -2 68 -11 14 -17 5 -30
-60 -89 -165 -150 -279 -279 -385 -436 -31 -47 -67 -96 -79 -110 -38 -45 -94
-133 -156 -245 -150 -271 -221 -451 -221 -560 0 -160 24 -225 115 -315 93 -91
149 -114 287 -119 102 -3 178 19 358 106 392 189 757 474 1001 781 53 67 75
79 100 57 22 -20 30 -73 33 -220 2 -97 6 -118 33 -180 29 -69 126 -222 181
-287 44 -53 166 -171 208 -203 22 -17 42 -33 45 -37 15 -19 241 -162 326 -205
79 -40 292 -117 384 -139 191 -45 378 -61 485 -42 65 12 114 17 220 22 55 3
127 10 160 16 33 6 76 13 95 16 19 3 41 7 49 10 8 2 30 7 50 10 20 3 54 10 76
16 22 6 54 12 70 13 163 17 340 118 433 247 81 111 89 146 62 243 -11 39 -30
66 -92 130 -78 83 -151 128 -380 241 -60 30 -341 128 -396 139 -12 2 -113 34
-224 70 -112 37 -209 69 -216 71 -25 7 -3 21 55 33 111 24 298 128 443 247
144 117 515 499 598 614 33 47 90 121 127 164 155 187 338 652 350 888 2 42 8
85 14 96 19 37 155 76 296 87 125 10 256 25 266 31 4 2 24 6 45 10 49 8 130
34 222 73 110 46 163 86 217 165 95 139 107 341 30 509 -41 91 -144 237 -218
309 -57 57 -78 71 -133 87 -35 11 -73 25 -85 31 -33 18 -156 20 -213 3 -54
-16 -186 -82 -186 -93 0 -4 -38 -27 -85 -51 -96 -49 -98 -49 -109 30 -11 80
-14 96 -51 261 -2 8 -10 44 -19 80 -17 77 -40 224 -39 260 0 14 4 53 8 87 9
71 -3 111 -44 156 -46 51 -62 54 -296 61 -221 7 -242 8 -370 26 -71 9 -212 44
-222 53 -3 3 6 30 20 59 105 226 120 451 39 620 -32 70 -124 202 -180 261
-100 106 -261 164 -402 145z m-854 -1537 c27 -5 114 -12 194 -16 80 -4 161 -9
180 -10 19 -2 179 -7 355 -10 176 -4 322 -9 325 -12 2 -2 0 -7 -6 -11 -17 -11
-227 -328 -331 -501 -52 -86 -128 -223 -168 -305 l-73 -148 -22 43 c-13 24
-43 82 -68 129 -128 242 -205 389 -302 575 -40 77 -88 168 -106 202 -33 60
-38 73 -30 73 2 0 25 -4 52 -9z m1651 -203 c29 -27 29 -39 1 -64 -13 -11 -57
-58 -98 -104 -41 -46 -80 -88 -86 -94 -118 -114 -294 -284 -340 -326 -32 -31
-84 -85 -115 -120 -31 -36 -119 -128 -195 -206 -77 -78 -164 -170 -194 -204
-30 -35 -74 -83 -97 -107 l-41 -44 24 -10 c14 -5 46 -18 72 -29 26 -11 56 -21
67 -23 11 -2 34 -10 50 -16 17 -7 48 -19 70 -26 22 -7 78 -30 125 -50 47 -20
107 -46 134 -56 26 -11 70 -31 97 -44 27 -14 50 -25 51 -25 11 2 133 -47 228
-92 63 -30 142 -65 175 -78 33 -13 65 -26 70 -30 15 -10 93 -37 163 -56 34 -9
62 -20 62 -24 0 -4 -7 -21 -16 -38 -16 -33 -11 -33 -89 -1 -11 4 -53 19 -93
34 -41 14 -98 36 -128 50 -30 14 -82 37 -117 51 -34 14 -107 47 -162 74 -55
27 -122 56 -150 65 -97 32 -241 88 -286 110 -25 13 -77 34 -115 46 -38 12 -73
25 -79 29 -5 4 -40 17 -78 29 -37 11 -77 25 -88 32 -26 13 -29 9 -40 -38 -4
-21 -26 -105 -49 -188 -23 -82 -47 -184 -55 -225 -12 -68 -36 -166 -79 -320
-17 -61 -24 -96 -32 -155 -8 -61 -12 -84 -29 -160 -9 -38 -25 -115 -35 -170
-11 -55 -29 -131 -40 -170 -11 -38 -25 -91 -31 -117 -10 -47 -11 -48 -50 -48
-21 0 -39 3 -39 8 0 4 15 55 34 113 19 58 37 128 41 154 3 27 8 52 10 55 2 4
12 42 21 86 18 87 17 83 38 204 8 47 23 110 32 140 9 30 18 66 20 80 4 26 13
76 20 120 3 14 9 41 14 60 5 19 12 50 15 69 3 19 8 37 10 40 2 4 6 27 10 51 4
25 22 97 40 160 56 192 73 280 52 280 -7 0 -28 -5 -47 -11 -19 -5 -55 -12 -80
-15 -25 -3 -76 -11 -115 -19 -38 -7 -90 -16 -115 -20 -25 -4 -67 -13 -95 -21
-27 -9 -133 -31 -235 -49 -102 -19 -223 -45 -270 -59 -72 -20 -160 -42 -290
-72 -26 -6 -111 -21 -170 -30 -19 -3 -51 -9 -72 -14 -36 -7 -36 -7 -43 27 -3
19 -5 36 -3 38 2 2 30 6 63 10 78 8 274 47 400 80 181 48 210 54 258 60 27 3
56 9 66 14 9 5 52 17 96 25 44 9 94 21 110 26 17 5 47 11 69 15 21 3 41 7 45
9 8 5 166 33 226 40 49 6 141 30 176 46 l26 12 -31 49 c-17 26 -40 63 -51 81
-95 155 -122 196 -138 213 -20 21 -127 182 -127 191 0 8 -80 124 -99 143 -44
45 -203 265 -277 385 l-55 89 33 27 c38 32 37 33 93 -73 43 -83 151 -235 256
-361 15 -17 36 -50 48 -74 12 -24 37 -60 55 -80 18 -20 45 -55 59 -77 15 -22
46 -67 71 -100 43 -58 128 -193 154 -245 7 -14 34 -50 60 -79 l48 -54 54 54
c30 30 80 83 110 119 30 35 251 260 490 500 240 239 453 458 475 487 22 29 42
52 44 53 3 0 15 -10 28 -22z m-2077 -466 c200 -305 341 -509 389 -564 l39 -43
-52 -1 c-61 -1 -275 -13 -331 -19 -41 -4 -149 -13 -245 -21 -30 -2 -77 -6
-105 -9 -27 -3 -79 -7 -115 -10 -36 -3 -78 -7 -95 -10 -16 -2 -63 -7 -102 -11
l-73 -6 0 38 c0 100 -9 322 -15 353 -5 27 -2 38 18 60 14 14 39 49 56 77 20
32 62 75 118 120 49 38 99 79 113 91 68 59 235 193 239 192 3 0 76 -107 161
-237z m2288 -119 c0 -49 3 -296 6 -550 l5 -462 -57 26 c-31 13 -70 31 -87 38
-243 109 -589 263 -737 328 -103 45 -188 84 -188 87 0 5 69 49 139 90 14 8 50
30 79 48 29 17 54 32 57 32 4 0 594 343 710 414 33 20 63 36 67 36 3 0 6 -39
6 -87z m-1808 -1030 c0 -5 -25 -102 -55 -218 -51 -191 -328 -1061 -344 -1077
-9 -10 -219 63 -276 96 -119 69 -336 271 -371 345 -9 19 -36 61 -61 95 -63 85
-112 176 -134 249 -10 34 -19 63 -19 64 0 1 26 10 58 19 118 34 595 205 763
274 96 40 192 78 214 86 22 7 78 27 125 43 96 33 100 34 100 24z m542 -2 c3
-8 112 -81 122 -81 2 0 47 -20 98 -44 144 -67 181 -83 528 -231 179 -76 328
-141 332 -144 4 -4 -3 -18 -15 -31 -12 -14 -58 -65 -101 -115 -261 -296 -650
-695 -705 -721 -34 -17 -120 -21 -176 -10 -11 2 -53 7 -93 11 l-73 7 5 57 c3
31 8 97 11 146 5 83 8 136 19 365 4 75 13 269 21 470 2 36 4 125 6 198 2 115
9 155 21 123z"/>
<path d="M4030 20844 c-123 -20 -187 -50 -268 -128 -52 -49 -170 -212 -201
-277 -75 -159 -59 -408 39 -610 16 -34 30 -64 30 -65 0 -5 -105 -33 -180 -48
-98 -19 -298 -33 -565 -39 -99 -2 -123 -13 -165 -74 -30 -43 -38 -87 -28 -148
12 -67 2 -177 -27 -310 -28 -127 -71 -343 -80 -397 -3 -21 -10 -38 -15 -38
-18 0 -138 62 -210 109 -65 42 -113 65 -170 78 -33 8 -127 9 -155 2 -16 -4
-66 -20 -110 -36 -70 -24 -88 -36 -150 -98 -118 -118 -215 -276 -249 -405 -19
-73 -15 -229 9 -295 41 -116 141 -225 242 -263 21 -8 67 -27 103 -43 36 -15
110 -37 165 -48 94 -18 127 -22 300 -37 39 -3 77 -7 85 -9 8 -2 30 -7 48 -10
58 -10 141 -46 157 -68 9 -13 15 -44 15 -80 0 -64 42 -250 89 -397 39 -120
190 -422 237 -475 19 -22 80 -98 133 -170 54 -71 145 -177 202 -236 57 -58
127 -130 155 -160 245 -261 500 -440 706 -494 70 -18 79 -29 31 -38 -16 -3
-109 -32 -208 -65 -99 -33 -247 -81 -330 -106 -167 -52 -270 -94 -360 -144
-33 -19 -94 -51 -135 -72 -102 -52 -221 -170 -250 -246 -29 -80 -26 -120 15
-188 19 -32 53 -80 75 -106 78 -93 263 -192 383 -204 23 -3 83 -14 132 -25 50
-11 110 -23 135 -26 25 -4 68 -11 95 -16 28 -5 93 -12 145 -15 102 -5 183 -13
215 -21 61 -15 231 -12 332 7 143 25 145 25 243 56 47 14 112 34 145 44 72 21
177 72 300 148 223 135 404 300 518 470 121 181 138 229 142 392 2 143 15 197
48 202 23 4 41 -11 92 -78 86 -111 321 -341 387 -380 9 -5 37 -27 63 -49 174
-148 462 -315 700 -408 103 -40 161 -48 258 -35 95 13 144 37 220 108 83 78
129 162 117 215 -4 20 -4 38 1 41 15 9 10 106 -10 175 -30 106 -90 246 -146
343 -29 50 -67 120 -84 155 -32 62 -87 147 -121 186 -10 11 -44 58 -76 105
-124 183 -230 306 -371 428 -74 65 -104 105 -90 119 3 3 45 7 94 8 99 4 104 5
192 35 145 49 217 102 455 335 198 194 283 323 395 601 22 55 76 264 86 329 3
22 9 65 14 95 14 83 5 241 -20 347 -6 27 -13 57 -15 68 -6 28 -13 123 -18 245
-8 180 -34 276 -165 607 -78 195 -104 239 -164 273 -43 25 -121 28 -179 8 -95
-34 -210 -162 -285 -318 -60 -125 -383 -968 -383 -1000 0 -5 -5 -12 -11 -16
-13 -8 -29 13 -29 38 0 24 -53 135 -108 228 -24 41 -58 102 -74 134 -17 33
-47 83 -67 110 -21 28 -56 83 -79 122 -145 250 -420 483 -757 644 -60 28 -147
69 -191 91 -45 21 -87 39 -93 39 -6 0 -44 17 -84 38 -106 54 -115 57 -257 87
-3 0 -27 8 -55 17 -27 9 -66 19 -86 22 -20 3 -42 8 -50 10 -8 3 -31 8 -53 11
-43 6 -77 40 -88 89 -3 16 -4 73 -2 125 7 126 6 318 -1 356 -21 124 -43 187
-86 251 -36 53 -78 86 -203 159 -192 111 -256 130 -386 109z m947 -1686 c-99
-190 -154 -295 -207 -393 -21 -38 -66 -124 -100 -190 -131 -250 -145 -274
-151 -267 -3 4 -21 41 -40 82 -71 159 -250 461 -425 718 -57 84 -104 154 -104
155 0 2 55 4 123 5 247 4 494 11 572 17 44 3 127 7 185 10 112 5 191 13 199
20 2 3 11 5 18 5 10 0 -15 -56 -70 -162z m2813 63 c0 -6 -4 -13 -10 -16 -5 -3
-10 1 -10 9 0 9 5 16 10 16 6 0 10 -4 10 -9z m-4374 -137 c21 -25 43 -52 47
-60 9 -16 232 -241 357 -361 47 -44 144 -140 215 -213 72 -72 157 -157 190
-189 33 -32 95 -98 138 -147 140 -159 178 -194 199 -183 23 12 92 104 113 149
18 39 68 116 135 210 25 34 56 79 70 100 14 20 41 57 61 81 20 24 46 62 59 84
19 32 94 133 143 190 32 37 145 211 175 267 20 37 39 68 43 68 4 0 21 -12 38
-26 l31 -25 -19 -27 c-23 -33 -71 -109 -87 -139 -16 -30 -207 -284 -241 -322
-16 -17 -60 -82 -98 -146 -39 -64 -87 -137 -108 -162 -21 -26 -50 -67 -65 -92
-14 -26 -40 -66 -57 -91 -16 -25 -37 -58 -45 -75 -8 -16 -25 -44 -38 -62 l-23
-31 33 -16 c41 -18 103 -35 160 -42 24 -2 54 -7 66 -10 13 -3 43 -7 65 -10 23
-3 60 -10 82 -16 22 -5 58 -13 80 -17 71 -15 219 -50 255 -62 19 -6 55 -13 80
-16 25 -2 104 -20 175 -39 201 -54 364 -88 477 -99 65 -6 66 -7 62 -33 -8 -49
-10 -50 -56 -42 -24 5 -61 11 -83 14 -94 14 -333 70 -530 124 -38 11 -92 23
-120 26 -27 4 -61 9 -75 11 -57 12 -76 15 -105 21 -16 3 -64 14 -106 25 -42
11 -91 22 -110 24 -43 5 -196 32 -269 47 -102 21 -93 23 -85 -24 4 -24 8 -55
10 -69 1 -14 11 -55 22 -90 36 -114 53 -174 62 -224 6 -28 22 -104 36 -170 15
-66 30 -145 35 -175 5 -30 17 -86 28 -125 17 -61 30 -122 47 -230 10 -66 74
-342 85 -370 7 -16 16 -43 20 -60 4 -16 11 -37 14 -46 6 -14 0 -17 -32 -21
l-40 -3 -22 85 c-12 47 -28 106 -36 131 -16 49 -20 71 -30 134 -3 22 -12 67
-19 100 -8 33 -16 71 -19 85 -3 14 -7 34 -10 46 -2 12 -7 45 -11 75 -3 30 -13
81 -22 114 -8 33 -17 67 -19 75 -2 8 -17 67 -34 130 -17 63 -33 135 -36 160
-3 25 -9 59 -14 75 -15 49 -48 178 -54 205 -2 14 -11 44 -19 67 -9 22 -18 58
-21 79 -4 21 -8 39 -9 41 -2 1 -26 -6 -53 -17 -27 -10 -101 -37 -164 -60 -63
-22 -149 -56 -190 -74 -41 -19 -109 -46 -150 -61 -163 -57 -217 -79 -275 -109
-33 -18 -91 -45 -130 -61 -38 -16 -102 -43 -142 -62 -39 -18 -100 -42 -135
-53 -35 -11 -72 -24 -83 -29 -81 -34 -78 -34 -104 17 -11 20 -9 23 16 33 27
10 38 14 84 24 27 6 111 36 124 45 6 4 37 17 70 30 33 13 115 49 182 81 67 32
144 64 170 72 26 8 84 32 128 52 44 20 105 47 135 60 30 13 78 33 105 46 28
12 68 28 90 35 22 7 85 29 140 49 55 20 108 39 118 42 9 3 17 9 17 14 0 4 -8
14 -17 21 -10 7 -33 31 -52 53 -99 116 -238 263 -292 311 -13 11 -62 63 -109
115 -98 108 -165 176 -382 384 -85 83 -196 195 -246 251 l-90 100 21 27 c12
15 24 27 28 27 3 0 23 -21 45 -46z m2276 -286 c55 -46 153 -126 217 -178 63
-52 125 -110 136 -128 11 -18 37 -53 57 -78 24 -29 35 -51 33 -65 -9 -47 -18
-170 -20 -269 -2 -131 -3 -142 -12 -137 -5 3 -39 8 -78 11 -38 4 -81 9 -95 11
-14 2 -61 7 -105 11 -44 3 -93 8 -110 9 -16 2 -68 6 -115 10 -47 3 -103 8
-125 10 -93 10 -302 23 -412 26 l-61 1 53 67 c61 75 127 172 363 528 92 139
168 253 170 253 2 0 48 -37 104 -82z m-2142 -425 c151 -88 334 -194 405 -235
72 -42 156 -92 189 -111 l59 -36 -67 -31 c-36 -16 -96 -43 -132 -60 -36 -16
-67 -30 -69 -30 -4 0 -94 -41 -180 -81 -135 -63 -621 -276 -624 -273 -4 4 -1
434 4 759 2 105 4 225 4 267 l1 78 68 -43 c37 -24 191 -116 342 -204z m876
-1006 c4 -185 26 -715 39 -922 2 -38 7 -115 10 -170 3 -55 8 -107 11 -117 6
-21 0 -25 -58 -32 -27 -3 -67 -8 -90 -11 -108 -14 -153 -12 -192 7 -58 30
-439 417 -666 678 -45 52 -101 114 -123 137 -25 26 -37 46 -32 51 6 5 125 58
265 117 592 251 790 344 815 385 14 23 19 -3 21 -123z m574 113 c28 -11 81
-29 118 -39 37 -10 139 -49 227 -86 183 -76 350 -137 651 -239 l211 -71 -24
-72 c-25 -80 -68 -156 -138 -252 -26 -35 -48 -70 -49 -76 -8 -55 -282 -308
-395 -365 -43 -22 -251 -93 -257 -88 -5 6 -273 824 -283 863 -15 64 -82 319
-88 335 -14 36 -32 110 -27 110 2 0 26 -9 54 -20z"/>
<path d="M148 13063 c-9 -2 -19 -12 -23 -21 -12 -33 -16 -351 -4 -395 6 -23
13 -82 14 -132 3 -85 7 -125 22 -205 3 -19 7 -43 8 -52 1 -10 4 -20 6 -22 2
-3 48 -6 102 -7 54 -1 115 -8 135 -15 64 -23 65 -22 58 59 -4 39 -9 86 -12
102 -3 17 -6 49 -8 73 l-3 42 91 1 c50 0 107 2 126 4 19 2 64 6 100 9 36 4 86
9 113 12 l47 7 1 -64 c1 -35 0 -125 -1 -199 -6 -293 -3 -404 15 -610 2 -25 6
-90 10 -145 7 -131 16 -260 21 -310 25 -300 25 -1169 -1 -1370 -3 -16 -7 -64
-10 -105 -3 -41 -8 -86 -10 -100 -19 -108 -28 -1346 -11 -1445 9 -51 16 -428
9 -476 l-5 -37 -119 -3 c-91 -3 -122 -8 -134 -20 -27 -27 -28 -342 -1 -337 6
1 36 -4 66 -12 53 -13 204 -17 615 -12 77 0 151 1 165 0 50 -1 109 5 121 13 9
5 12 38 10 106 -2 115 -9 163 -25 169 -13 5 -70 11 -131 13 l-40 1 0 247 c0
137 -4 291 -8 343 -4 52 -11 129 -15 170 -9 104 -7 1350 3 1600 4 113 9 396
10 630 1 234 5 459 9 500 4 41 9 95 12 120 15 159 19 237 19 420 -1 113 -4
259 -9 325 -15 212 -8 438 20 614 2 13 8 27 14 31 14 9 256 3 312 -8 25 -5 62
-9 82 -8 20 1 36 -1 37 -4 0 -3 2 -23 5 -45 11 -97 26 -188 43 -247 16 -57 20
-63 42 -59 13 3 70 5 127 5 56 0 102 3 103 6 0 3 3 14 5 25 3 11 7 43 9 70 2
28 17 113 34 191 35 163 46 299 29 356 -25 84 -145 146 -343 175 -87 13 -334
7 -435 -11 -27 -5 -116 -19 -140 -22 -8 -1 -28 -4 -45 -7 -16 -3 -68 -11 -115
-17 -47 -6 -96 -13 -110 -15 -65 -12 -219 -20 -355 -19 -173 1 -292 25 -378
76 -28 16 -60 32 -71 34 -33 6 -190 12 -208 7z"/>
<path d="M16429 12860 c-282 -50 -564 -191 -745 -374 -120 -121 -196 -233
-232 -341 -19 -56 -84 -397 -97 -510 -4 -27 -8 -61 -11 -75 -7 -39 -18 -266
-18 -355 0 -84 12 -335 18 -395 4 -32 7 -89 22 -430 3 -58 7 -400 8 -760 2
-360 6 -666 9 -680 3 -14 8 -52 11 -85 7 -68 11 -93 33 -225 22 -139 22 -136
70 -310 48 -177 67 -229 133 -366 134 -282 307 -473 495 -549 22 -9 54 -22 70
-30 40 -18 166 -51 241 -65 255 -44 529 -29 744 41 259 86 459 293 584 605 33
85 100 314 90 314 -2 0 0 10 5 23 5 12 12 44 15 70 4 26 11 70 16 96 26 139
30 333 16 956 -6 314 -8 341 -33 458 -14 68 -20 80 -42 89 -41 17 -207 17
-316 1 -73 -11 -203 -15 -485 -17 -344 -1 -392 -3 -448 -20 -54 -16 -91 -44
-77 -57 2 -3 6 -66 9 -141 6 -153 19 -218 48 -245 17 -16 39 -18 157 -18 92 0
161 6 213 18 56 12 105 16 180 12 194 -8 219 -24 244 -154 11 -61 11 -239 0
-290 -10 -45 -45 -216 -50 -246 -3 -16 -10 -55 -16 -85 -6 -30 -13 -75 -16
-100 -18 -154 -99 -464 -145 -560 -80 -163 -268 -308 -434 -335 -47 -7 -159
-8 -195 0 -93 18 -136 32 -217 71 -278 133 -355 344 -378 1030 -2 83 -7 173
-10 200 -2 27 -7 83 -10 124 -2 41 -7 109 -10 150 -3 41 -7 102 -10 135 -25
347 -25 1049 0 1405 2 30 6 222 10 425 3 204 8 402 11 440 13 170 57 297 137
389 42 50 167 148 232 182 182 97 446 114 587 37 134 -73 234 -275 251 -508 9
-117 59 -182 165 -215 72 -22 184 -27 257 -10 76 17 205 85 256 135 77 75 101
141 101 280 -1 136 -38 253 -105 333 -21 24 -37 48 -37 52 0 14 -88 98 -164
157 -198 154 -426 264 -651 315 -128 29 -345 32 -486 8z"/>
<path d="M12867 11854 c-1 -1 -94 -5 -207 -8 -291 -9 -528 -19 -675 -31 -78
-6 -98 -7 -260 -20 -44 -4 -82 -9 -84 -11 -23 -22 -20 -265 3 -329 l14 -40 60
0 60 0 6 -36 c17 -107 21 -314 20 -1109 -2 -1012 -12 -2436 -18 -2465 -3 -11
-5 -25 -5 -31 -1 -6 -36 -9 -101 -7 -75 2 -100 0 -102 -9 -1 -7 -2 -31 -3 -53
-1 -22 -4 -62 -5 -90 -2 -40 7 -139 16 -177 1 -5 2 -29 3 -55 2 -81 -10 -77
258 -73 131 2 337 2 458 1 581 -8 682 -5 825 24 8 2 23 4 32 4 22 1 60 38 77
76 27 58 18 333 -12 383 -3 4 -7 27 -10 52 -13 101 -21 165 -22 170 -1 3 -5
37 -9 75 -11 106 -10 104 -59 99 -23 -2 -73 -9 -112 -16 -38 -6 -97 -12 -130
-13 -33 -1 -63 -3 -67 -3 -12 -3 -9 -46 7 -109 9 -32 20 -92 25 -134 5 -41 10
-81 12 -89 2 -12 -28 -14 -177 -15 -184 0 -309 11 -380 36 -36 13 -39 17 -43
59 -7 70 -7 1092 0 1120 4 14 7 48 7 76 1 47 4 53 29 63 61 25 172 39 311 41
80 0 153 2 161 4 8 1 38 6 65 11 74 12 94 22 106 52 29 76 26 320 -4 383 -12
24 -16 25 -103 24 -50 -1 -122 -7 -160 -14 -38 -6 -82 -14 -99 -17 -16 -2 -41
-6 -55 -9 -58 -10 -128 -18 -179 -18 -42 -1 -55 3 -56 15 -4 24 -15 117 -21
184 -4 33 -6 182 -4 330 4 590 3 824 -5 910 -13 136 -12 245 4 297 15 51 7 48
131 63 47 6 307 6 400 0 41 -3 107 -7 145 -9 l70 -4 1 -98 c1 -127 -1 -121 35
-129 53 -12 353 -3 368 11 8 7 -2 365 -13 454 -3 19 -8 63 -11 98 -8 75 -23
92 -78 93 -23 0 -62 3 -87 5 -43 4 -350 11 -353 8z"/>
<path d="M5310 11843 c-123 -3 -154 -9 -144 -25 5 -7 9 -65 10 -130 2 -65 5
-122 8 -127 4 -5 32 -7 64 -4 31 4 80 7 107 7 57 1 53 12 42 -119 -15 -162
-22 -313 -32 -640 -3 -99 -8 -234 -10 -300 -17 -515 -34 -2702 -22 -2903 4
-64 -6 -71 -92 -64 -85 7 -103 5 -112 -10 -9 -13 -3 -84 8 -101 3 -5 5 -34 4
-65 0 -31 2 -64 5 -74 11 -37 107 -42 244 -13 109 23 345 23 434 1 61 -16 70
-16 84 -3 14 15 18 74 8 122 -2 11 -9 47 -16 81 -16 82 -18 84 -67 75 -23 -5
-54 -7 -70 -6 -32 1 -32 1 -18 130 12 122 13 132 20 245 3 58 8 134 10 170 6
100 17 456 19 637 1 90 4 164 7 166 5 4 179 35 249 45 64 9 256 8 318 -1 115
-16 219 -73 246 -135 20 -46 52 -171 61 -235 4 -27 8 -59 11 -70 12 -67 19
-233 18 -477 -2 -398 -4 -450 -23 -450 -32 -1 -166 -12 -168 -14 -7 -6 -17
-121 -18 -187 0 -97 11 -113 74 -105 181 21 319 25 487 12 117 -9 323 -11 330
-3 3 3 1 38 -5 79 -13 83 -20 150 -20 192 l-1 29 -77 -6 -78 -6 0 232 c-1 253
-9 393 -35 602 -35 270 -54 340 -126 452 -64 99 -154 244 -154 247 0 2 36 39
81 82 66 65 89 96 125 169 51 104 85 211 110 351 30 165 24 667 -11 954 -2 19
-7 60 -10 90 -4 30 -8 66 -10 80 -2 14 -7 45 -10 70 -4 25 -11 68 -16 95 -5
28 -12 66 -15 85 -11 70 -66 286 -90 350 -45 118 -90 179 -178 239 -102 70
-326 142 -516 166 -115 15 -729 25 -1040 18z m880 -438 c113 -10 277 -58 381
-112 153 -79 202 -175 223 -439 21 -252 34 -588 40 -1039 3 -200 -20 -287 -91
-341 -38 -29 -169 -78 -238 -89 -22 -4 -53 -9 -70 -12 -16 -3 -168 -6 -337 -8
l-308 -3 -1 42 c0 22 -2 49 -4 59 -20 107 -26 737 -11 1297 5 168 9 376 9 462
0 172 -4 160 62 173 17 3 64 9 105 12 41 3 76 7 78 8 3 3 41 0 162 -10z"/>
<path d="M19737 11843 c-1 -1 -51 -3 -112 -5 -89 -3 -109 -7 -106 -19 3 -13
10 -149 11 -231 l0 -36 63 6 c100 9 162 8 160 -3 0 -5 -4 -57 -8 -115 -3 -58
-8 -125 -10 -150 -8 -91 -28 -695 -40 -1189 -12 -475 -20 -2293 -12 -2510 l2
-54 -60 1 c-33 0 -77 1 -97 2 -53 3 -61 -5 -53 -54 4 -22 9 -70 11 -106 3 -36
7 -75 9 -87 9 -41 98 -49 235 -21 84 17 95 18 240 19 95 1 155 -4 203 -15 89
-22 99 -15 96 68 -2 54 -30 201 -41 211 -2 2 -19 1 -38 -3 -30 -7 -68 -8 -103
-3 -5 1 -6 18 -3 39 5 34 8 63 21 190 18 186 36 615 39 955 1 130 4 158 16
161 15 5 147 30 210 41 79 14 286 14 356 0 143 -27 214 -72 244 -153 25 -65
50 -168 56 -232 3 -25 7 -51 10 -58 21 -67 26 -904 4 -917 -4 -3 -46 -8 -94
-11 -78 -6 -86 -9 -87 -28 0 -12 -3 -30 -5 -41 -11 -47 -12 -177 -2 -205 10
-31 11 -31 67 -25 202 22 300 24 486 10 112 -8 324 -9 332 -1 3 3 -2 52 -11
110 -9 58 -16 124 -16 147 l0 42 -78 -6 -79 -6 1 222 c1 193 -6 370 -18 472
-2 17 -7 57 -11 90 -16 145 -44 311 -62 363 -16 50 -75 156 -128 232 -17 25
-46 71 -64 102 l-32 57 42 38 c61 55 87 83 121 131 79 114 147 326 166 522 13
136 5 636 -13 755 -2 17 -6 57 -9 90 -8 83 -16 155 -21 185 -2 14 -11 72 -20
130 -9 58 -24 134 -32 170 -8 36 -17 74 -19 85 -2 11 -6 32 -10 47 -3 15 -5
29 -5 30 3 9 -60 181 -82 223 -43 84 -131 160 -247 213 -99 45 -366 110 -450
110 -8 0 -64 3 -125 7 -93 6 -793 13 -798 8z m848 -443 c94 -15 256 -65 328
-101 135 -69 201 -172 221 -344 27 -242 48 -742 49 -1160 0 -287 -46 -346
-318 -407 -78 -18 -132 -21 -407 -23 l-318 -3 -1 32 c-1 17 -3 42 -4 56 -21
242 -27 805 -12 1210 4 113 8 321 9 462 l1 257 56 12 c119 26 268 29 396 9z"/>
<path d="M24727 11783 c-2 -1 -23 -5 -48 -8 -181 -22 -395 -127 -544 -266
-160 -150 -252 -323 -292 -549 -13 -74 -11 -356 3 -445 48 -303 160 -489 449
-740 44 -38 82 -72 85 -75 3 -3 25 -23 50 -44 387 -337 634 -593 786 -816 190
-281 250 -581 157 -795 -59 -138 -191 -252 -335 -290 -46 -13 -182 -13 -247
-1 -193 36 -341 154 -341 270 0 35 42 108 102 179 34 39 70 78 79 85 26 18 42
78 35 128 -13 95 -84 182 -192 235 -156 77 -342 33 -490 -115 -93 -94 -128
-165 -128 -261 0 -267 98 -516 271 -690 71 -71 111 -104 185 -154 183 -124
320 -163 548 -157 271 8 446 64 660 210 148 101 242 211 292 341 17 43 52 207
63 290 3 28 11 70 17 95 5 25 12 95 13 155 3 95 0 126 -25 225 -50 198 -107
311 -253 499 -87 112 -364 399 -474 491 -36 30 -71 60 -77 65 -6 6 -54 44
-106 85 -194 153 -358 311 -551 530 -127 145 -169 241 -174 398 -5 151 43 306
138 450 109 163 233 233 404 226 286 -10 389 -152 308 -424 -36 -121 -36 -184
-1 -244 52 -89 145 -137 275 -142 172 -7 319 55 396 167 34 48 45 95 45 186 1
93 -20 164 -84 288 -29 55 -70 139 -91 188 -21 48 -54 105 -72 127 -42 48
-217 182 -281 214 -51 25 -209 71 -282 82 -47 7 -268 13 -273 7z"/>
<path d="M4718 11775 c-3 -3 -131 -10 -353 -20 -221 -10 -279 -15 -285 -25 -3
-5 -5 -60 -5 -122 0 -95 3 -119 21 -148 16 -29 27 -36 57 -38 22 -2 41 -10 46
-20 5 -9 12 -78 15 -152 12 -250 16 -335 21 -440 3 -58 7 -166 10 -240 3 -74
7 -184 10 -245 3 -60 7 -182 10 -270 3 -88 8 -209 10 -270 3 -60 7 -198 10
-305 3 -107 8 -217 11 -245 9 -94 12 -680 3 -755 -4 -41 -11 -100 -14 -130 -3
-30 -11 -73 -17 -95 -5 -22 -11 -47 -13 -55 -19 -95 -98 -243 -169 -313 -94
-95 -224 -145 -392 -153 -206 -9 -390 74 -478 216 -57 92 -103 247 -122 415
-3 33 -8 68 -9 77 -2 9 -7 57 -10 105 -4 48 -9 102 -11 118 -2 17 -6 64 -9
105 -3 41 -8 91 -10 110 -13 106 -16 146 -32 380 -4 63 -7 327 -8 585 0 552
10 858 40 1165 2 19 6 78 9 130 8 122 18 255 20 256 0 1 22 4 48 7 75 9 129
29 145 54 16 25 13 90 -10 211 l-12 64 -163 3 c-89 2 -166 6 -170 9 -12 7
-130 17 -216 18 -94 0 -132 -14 -167 -63 -23 -32 -26 -72 -14 -189 2 -19 4
-52 4 -72 l1 -37 63 -3 62 -3 -1 -170 c-2 -160 -6 -321 -19 -635 -6 -135 -7
-169 -22 -460 -9 -199 -9 -689 0 -895 18 -379 29 -561 42 -685 10 -93 16 -136
20 -160 3 -14 7 -41 9 -60 5 -43 34 -215 41 -250 3 -14 8 -41 11 -60 24 -146
54 -222 126 -318 132 -176 337 -331 511 -388 64 -21 86 -23 207 -19 74 2 146
6 160 9 14 2 58 10 99 16 151 25 280 83 420 189 119 91 206 199 282 350 37 74
102 248 113 304 57 276 56 269 75 430 22 183 26 294 25 782 0 540 -10 996 -28
1300 -4 61 -9 151 -12 200 -2 50 -6 110 -9 135 -2 25 -7 83 -10 130 -4 47 -9
94 -11 105 -2 11 -6 63 -9 116 l-6 96 56 6 c31 3 67 13 80 21 26 17 26 12 10
171 -10 91 -16 115 -34 116 -9 0 -24 2 -33 4 -9 2 -18 2 -20 0z"/>
<path d="M7688 11772 l-108 -3 -2 -72 c-9 -260 -2 -436 17 -455 4 -4 55 -7
113 -8 59 -1 121 -4 137 -7 53 -11 60 2 43 72 -13 55 -13 61 1 62 43 3 179 -2
204 -7 30 -6 30 -6 29 -204 0 -52 0 -149 0 -215 3 -3123 2 -3364 -15 -3392 -4
-6 -22 -8 -44 -4 -21 4 -44 6 -50 5 -7 -1 -24 -2 -37 -3 -26 -1 -59 -27 -51
-40 2 -4 7 -41 10 -82 8 -99 14 -132 26 -144 10 -10 187 -11 602 -4 168 3 220
7 226 18 9 15 5 65 -11 126 -6 22 -12 49 -14 60 -11 56 -14 67 -26 92 -16 34
-59 40 -156 23 -44 -7 -67 -8 -71 -1 -10 16 -1 867 23 2346 9 519 26 1364 28
1393 2 15 -10 14 190 17 l167 3 7 -31 c4 -18 8 -44 9 -59 0 -15 3 -30 7 -33 3
-3 53 -9 111 -12 152 -9 181 8 192 107 8 71 6 192 -3 225 -9 32 -9 54 3 126 4
26 3 49 -2 52 -4 3 -30 8 -58 11 -145 17 -132 16 -425 32 -131 7 -886 11
-1072 6z"/>
<path d="M18657 11724 c-7 -6 -122 -16 -229 -21 -119 -5 -131 -8 -130 -33 0
-12 12 -97 16 -117 2 -11 7 -41 11 -65 l7 -44 64 0 65 1 4 -350 c3 -192 6
-384 9 -425 2 -41 7 -151 11 -245 3 -93 8 -201 10 -240 25 -453 20 -1590 -10
-2060 -3 -44 -7 -118 -10 -165 -3 -47 -8 -101 -10 -120 -2 -19 -7 -91 -11
-160 -3 -69 -8 -126 -9 -128 -5 -6 -55 -11 -122 -13 l-62 -2 23 -46 c25 -48
42 -138 45 -234 1 -16 11 -17 110 -13 60 3 119 8 132 11 43 10 92 14 249 21
85 3 171 7 190 9 19 2 56 3 83 4 44 1 47 3 47 29 0 31 -28 170 -39 192 -6 10
-25 15 -67 15 -108 2 -99 -7 -99 98 0 50 -4 142 -9 202 -11 146 -12 345 -2
475 11 134 10 425 -1 605 -4 77 -8 325 -8 550 1 361 4 466 21 680 6 84 15 432
19 795 2 190 6 359 9 375 2 17 4 56 5 88 l1 58 65 -2 c36 -1 68 1 71 4 4 3 -3
37 -14 74 -21 72 -34 126 -37 156 -4 39 -20 42 -211 42 -102 0 -186 -1 -187
-1z"/>
<path d="M9805 11669 c-204 -33 -226 -39 -237 -68 -5 -14 -12 -74 -15 -132 -7
-121 -6 -121 72 -109 28 4 70 11 95 14 l45 6 3 -1238 c3 -1187 7 -1803 17
-2147 15 -552 18 -624 27 -629 2 -1 26 -17 54 -34 43 -27 64 -33 130 -38 104
-7 429 -6 496 1 82 9 130 15 161 21 16 3 38 7 50 9 12 1 47 5 77 9 30 4 118 9
195 11 120 3 234 21 252 38 7 7 6 157 -1 217 -13 97 -22 150 -42 237 -32 140
-58 199 -93 211 -69 24 -321 -10 -321 -44 0 -8 9 -40 19 -72 11 -31 22 -86 25
-122 4 -36 8 -74 9 -85 2 -18 -6 -19 -203 -22 -113 -1 -242 -4 -287 -5 -45 -2
-84 0 -88 3 -7 8 -11 40 -20 169 -3 52 -8 120 -10 150 -18 245 -34 546 -50
945 -27 673 -27 1089 0 1470 3 39 7 115 10 170 5 116 16 318 20 390 11 153 19
365 19 475 0 153 -7 169 -92 195 -77 25 -184 26 -317 4z"/>
<path d="M22309 11686 c-2 -3 -31 -7 -64 -11 -33 -3 -67 -8 -75 -10 -8 -3 -33
-7 -55 -10 -108 -15 -137 -26 -150 -59 -11 -29 -18 -89 -18 -166 0 -79 1 -81
31 -76 15 3 50 8 77 11 28 3 64 8 82 11 31 6 31 5 26 -28 -7 -40 -7 -136 1
-1718 3 -685 8 -1328 10 -1430 3 -102 8 -284 11 -405 7 -267 14 -415 21 -426
2 -4 29 -22 59 -39 42 -24 71 -33 118 -36 84 -5 453 -5 497 0 19 2 62 7 95 11
32 4 67 8 76 10 96 19 172 26 314 29 134 4 226 18 252 38 19 15 1 341 -21 377
-3 3 -7 26 -11 51 -10 67 -53 195 -74 221 -17 21 -27 23 -107 23 -93 0 -202
-18 -230 -38 -14 -11 -14 -17 5 -66 12 -30 24 -82 27 -115 3 -33 9 -76 13 -96
l8 -35 -206 -2 c-113 0 -245 -2 -293 -4 -47 -2 -88 -1 -91 2 -3 3 -8 50 -12
105 -3 55 -8 123 -10 150 -4 45 -9 119 -20 290 -13 198 -35 711 -50 1160 -12
359 -9 625 10 925 2 25 6 106 9 180 7 137 13 249 21 375 2 39 7 129 11 200 3
72 8 150 9 175 8 110 5 318 -4 342 -12 31 -43 54 -92 69 -35 10 -193 22 -200
15z"/>
<path d="M11742 5922 c-84 -2 -93 -5 -87 -20 4 -9 8 -44 10 -77 1 -33 3 -64 4
-69 0 -4 28 -6 62 -3 l61 5 -6 -47 c-18 -148 -33 -785 -40 -1671 l-1 -175 -43
4 c-53 3 -75 -12 -67 -48 3 -15 7 -44 9 -65 2 -21 10 -43 18 -48 7 -5 50 -6
98 -2 82 6 254 7 314 2 44 -4 52 17 37 102 l-13 72 -40 -6 -40 -7 7 73 c12
118 14 154 20 343 4 99 8 185 10 191 4 13 97 26 206 29 51 2 95 -4 138 -17 54
-17 64 -24 77 -53 27 -65 43 -168 46 -290 2 -115 -4 -255 -12 -260 -4 -3 -28
-6 -54 -6 -39 -2 -46 -5 -47 -23 0 -12 -2 -39 -5 -62 -3 -22 0 -53 6 -68 10
-27 11 -28 73 -21 60 6 169 6 352 1 50 -2 95 1 101 6 8 6 9 23 2 56 -5 26 -9
63 -10 83 l0 37 -44 -4 -44 -4 1 82 c4 167 -27 404 -62 472 -11 22 -41 66 -65
98 l-45 58 31 27 c47 39 56 49 78 85 25 40 58 138 68 198 8 54 8 286 -1 355
-3 28 -8 67 -10 89 -13 120 -63 323 -94 384 -46 90 -137 138 -335 178 -73 14
-438 23 -664 16z m531 -247 c74 -6 205 -50 235 -78 52 -48 59 -77 77 -347 8
-118 6 -397 -3 -421 -25 -65 -136 -91 -398 -93 l-134 -1 -7 35 c-8 37 -9 421
-3 722 l4 178 40 8 c41 8 80 7 189 -3z"/>
<path d="M16768 5925 c-2 -2 -79 -5 -173 -9 -338 -12 -391 -17 -393 -38 -5
-67 -2 -133 8 -162 10 -32 15 -36 46 -36 31 0 34 -2 36 -32 0 -18 3 -46 4 -63
8 -81 -1 -1588 -10 -1603 -3 -5 -25 -7 -48 -5 -24 2 -49 0 -55 -5 -21 -14 -15
-209 7 -237 12 -15 833 -12 888 4 59 16 76 47 75 128 -1 35 -6 79 -12 96 -5
18 -13 55 -17 82 -4 28 -10 68 -13 90 l-6 40 -50 -1 c-109 -1 -176 -8 -185
-19 -6 -8 -5 -30 4 -66 24 -97 32 -92 -122 -87 -114 4 -137 7 -148 22 -16 22
-15 569 1 585 15 14 54 20 167 22 111 2 176 13 197 34 18 17 24 141 9 189 -10
31 -16 36 -42 37 -56 2 -110 -2 -166 -11 -142 -23 -158 -23 -166 2 -4 13 -9
176 -11 363 -2 187 -4 359 -4 383 -1 50 0 51 32 58 31 6 286 6 318 -1 33 -6
36 -11 33 -49 -6 -60 14 -69 147 -63 64 3 118 6 120 6 6 1 -7 261 -15 299 -4
18 -11 35 -17 39 -10 6 -433 13 -439 8z"/>
<path d="M14090 5882 c-19 -1 -65 -7 -102 -13 l-68 -11 1 -41 c3 -83 11 -101
51 -111 l37 -9 -4 -106 c-2 -58 -7 -432 -10 -831 -4 -399 -8 -745 -10 -770 -2
-25 -3 -62 -4 -82 -1 -35 -4 -38 -41 -48 -35 -9 -67 -40 -55 -51 2 -3 5 -24 6
-47 3 -38 6 -42 28 -43 153 -3 372 2 393 10 33 12 38 21 42 73 5 62 -2 78 -33
78 l-26 0 3 407 3 408 25 38 c14 21 28 35 33 33 7 -5 116 -234 291 -611 16
-33 51 -109 79 -169 39 -83 48 -112 39 -118 -7 -4 -18 -6 -25 -4 -14 6 -21
-20 -18 -72 4 -66 8 -68 162 -71 76 -1 178 -3 226 -4 109 -3 121 4 109 58 -5
22 -8 48 -6 57 3 20 -24 31 -78 30 l-39 -1 -35 77 c-19 42 -146 297 -280 566
-207 412 -244 492 -236 511 17 36 151 209 354 455 l194 235 65 0 64 0 2 72 c1
40 -2 75 -7 78 -29 18 -534 25 -551 8 -11 -11 -20 -115 -12 -139 2 -6 18 -10
36 -9 58 4 60 -4 14 -59 -38 -45 -108 -136 -159 -208 -9 -12 -55 -77 -102
-143 -97 -137 -182 -236 -184 -215 -3 50 -2 189 2 208 3 12 6 108 7 212 1 150
4 190 15 190 7 0 24 4 38 9 22 9 24 13 16 43 -5 18 -11 56 -13 83 l-4 50 -99
0 c-54 0 -115 -1 -134 -3z"/>
<path d="M18188 5828 c-3 -128 3 -203 17 -217 9 -10 40 -15 92 -17 106 -3 117
1 109 37 -5 29 -5 29 39 27 39 -1 45 -4 49 -27 5 -33 4 -1649 -2 -1713 l-4
-48 -38 0 c-57 0 -68 -17 -59 -86 5 -37 14 -63 25 -71 14 -10 71 -12 247 -8
126 3 233 8 238 11 23 14 -10 157 -39 173 -10 5 -39 8 -66 6 l-48 -3 6 427 c6
438 14 837 21 1091 2 80 4 166 4 193 l1 47 85 0 c83 0 85 0 85 -24 0 -33 6
-35 94 -38 67 -3 78 0 98 20 21 21 23 31 23 138 0 129 8 117 -85 129 -25 4
-235 8 -467 11 l-423 5 -2 -63z"/>
<path d="M10007 5874 c-1 -1 -72 -4 -157 -7 -85 -4 -156 -7 -157 -7 -2 0 -3
-17 -3 -37 0 -50 16 -105 38 -130 18 -21 89 -46 104 -37 12 8 10 -18 -7 -83
-16 -59 -100 -428 -108 -473 -6 -31 -41 -188 -66 -295 -33 -142 -167 -628
-229 -830 -15 -49 -33 -90 -39 -91 -7 -1 -27 -2 -43 -2 l-30 -2 4 -71 c3 -39
8 -75 13 -80 5 -5 101 -9 213 -10 189 -1 244 2 258 15 7 8 -39 125 -52 133 -6
4 -27 8 -46 8 -19 1 -34 5 -34 10 5 32 98 383 105 398 9 16 24 17 167 13 86
-2 172 -5 190 -5 31 -1 45 -17 56 -66 7 -31 30 -101 36 -110 12 -16 51 -143
56 -178 3 -18 7 -38 9 -44 2 -7 -1 -14 -8 -14 -7 -1 -19 -3 -27 -4 -8 -1 -21
-3 -27 -4 -9 -1 -11 -19 -7 -68 6 -68 18 -98 35 -87 5 3 44 5 87 4 332 -7 343
-7 350 7 9 15 0 128 -11 139 -4 4 -26 7 -49 6 -38 -2 -45 2 -64 31 -11 17 -49
140 -83 272 -34 132 -84 323 -111 425 -93 353 -128 496 -154 635 -14 77 -28
149 -30 160 -2 12 -7 48 -11 80 -3 33 -8 76 -10 95 -3 19 -7 60 -10 90 -8 77
-21 155 -31 192 -4 12 -19 17 -60 20 -31 1 -56 2 -57 2z m11 -846 c12 -57 28
-146 37 -198 8 -52 25 -137 37 -187 12 -51 18 -96 14 -100 -9 -10 -189 -14
-229 -6 -27 5 -28 8 -22 47 4 22 13 66 21 96 20 74 45 170 50 195 2 11 6 34
10 50 20 104 47 205 53 205 4 0 17 -46 29 -102z"/>
<path d="M7057 5845 c-27 -7 -51 -15 -53 -18 -22 -22 -35 -445 -39 -1262 -2
-368 -4 -673 -4 -676 -1 -4 -19 -9 -42 -12 -22 -3 -43 -8 -46 -11 -4 -3 -1
-23 5 -45 7 -21 12 -50 12 -65 0 -37 18 -41 172 -39 289 3 282 0 286 95 l3 66
-42 0 c-22 1 -43 3 -46 6 -7 7 -6 90 1 151 8 63 16 335 18 617 2 197 6 247 15
186 2 -12 7 -26 12 -32 4 -6 25 -54 46 -106 48 -118 162 -372 173 -381 6 -7
110 -14 158 -10 56 3 93 77 195 391 40 124 75 228 79 233 7 8 7 17 14 -584 l6
-476 -41 -7 -42 -7 7 -61 c3 -33 11 -67 17 -75 17 -20 370 -10 436 12 14 5 15
42 1 98 -8 34 -12 37 -42 37 l-34 0 0 183 c1 177 -9 795 -17 1067 -2 74 -6
261 -10 415 -4 154 -9 284 -12 288 -6 10 -144 6 -199 -5 -50 -10 -39 12 -248
-523 -131 -334 -179 -446 -188 -437 -8 8 -245 599 -262 652 -21 68 -127 308
-144 327 -24 27 -68 29 -145 8z"/>
<path d="M1766 4932 c-2 -2 -344 -5 -760 -7 -732 -4 -842 -8 -881 -35 -5 -4
-21 -10 -35 -13 -41 -10 -82 -60 -82 -100 0 -80 30 -108 145 -131 137 -29 220
-31 892 -27 1049 5 1942 5 2315 -3 842 -16 1463 -25 2179 -31 l614 -6 94 42
c51 24 93 47 94 53 1 15 1 87 0 111 -1 25 -84 77 -151 96 -32 9 -148 14 -400
15 -954 5 -1956 18 -2345 30 -220 7 -1673 12 -1679 6z"/>
<path d="M21576 4893 c-3 -3 -1208 -15 -1356 -13 -340 4 -355 3 -463 -30 -80
-25 -116 -55 -124 -103 -16 -99 52 -140 267 -164 41 -4 397 -7 790 -6 1534 4
2013 4 2215 -1 116 -3 388 -7 605 -11 217 -3 512 -8 655 -10 358 -6 1404 -17
1605 -17 157 0 168 1 235 28 131 52 130 52 129 124 -1 57 -4 65 -30 84 -32 24
-117 62 -160 72 -16 3 -263 8 -549 9 -945 5 -1861 18 -2330 31 -210 6 -1484
12 -1489 7z"/>
</g>
</svg>
