<?xml version="1.0" standalone="no"?>
<!DOCTYPE svg PUBLIC "-//W3C//DTD SVG 20010904//EN"
 "http://www.w3.org/TR/2001/REC-SVG-20010904/DTD/svg10.dtd">
<svg version="1.0" xmlns="http://www.w3.org/2000/svg"
 width="2614.000000pt" height="2614.000000pt" viewBox="0 0 2614.000000 2614.000000"
 preserveAspectRatio="xMidYMid meet">
<metadata>
Created by potrace 1.11, written by Peter Selinger 2001-2013
</metadata>
<g transform="translate(0.000000,2614.000000) scale(0.100000,-0.100000)"
fill="#000000" stroke="none">
<path d="M14230 22423 c-42 -5 -103 -26 -140 -47 -19 -12 -52 -30 -74 -41 -92
-47 -162 -168 -193 -335 -12 -69 -42 -163 -56 -176 -6 -6 -110 57 -127 76 -3
3 -51 35 -108 70 -95 60 -286 191 -322 222 -8 7 -33 37 -55 66 -44 59 -73 78
-133 88 -73 12 -102 -1 -183 -79 -247 -238 -380 -348 -511 -421 -59 -33 -64
-33 -72 4 -9 47 -71 174 -121 250 -62 94 -152 173 -250 220 -149 72 -413 98
-533 52 -113 -43 -216 -132 -261 -224 -43 -90 -95 -305 -95 -398 -1 -78 2 -91
35 -160 47 -97 107 -176 211 -274 241 -230 230 -217 230 -271 0 -23 -15 -53
-50 -103 -28 -39 -63 -95 -78 -124 -15 -29 -44 -80 -65 -114 -22 -34 -39 -65
-39 -70 -1 -5 -9 -27 -20 -49 -11 -22 -19 -49 -20 -60 0 -11 -13 -47 -28 -80
-16 -33 -39 -91 -52 -130 -12 -38 -26 -74 -30 -80 -12 -15 -75 -219 -98 -315
-38 -153 -47 -242 -47 -430 1 -163 7 -228 31 -313 8 -29 21 -88 29 -132 25
-134 136 -519 156 -540 5 -5 9 -17 9 -27 0 -22 18 -29 -256 101 -288 135 -721
317 -825 345 -121 33 -272 32 -340 -3 -60 -31 -88 -59 -110 -106 -21 -47 -18
-130 7 -191 16 -39 21 -52 68 -157 14 -31 38 -85 52 -120 74 -177 157 -310
260 -418 65 -69 174 -201 174 -210 0 -13 70 -109 125 -173 110 -127 354 -287
580 -381 69 -28 201 -69 255 -79 19 -3 46 -8 60 -11 120 -23 465 -24 636 -1
163 22 317 95 406 195 38 43 67 53 69 24 1 -10 3 -124 4 -253 1 -129 5 -246 9
-260 3 -14 9 -43 11 -65 3 -22 7 -51 10 -65 3 -14 7 -36 10 -50 3 -14 7 -36
10 -50 2 -14 7 -45 10 -70 14 -107 27 -164 55 -245 11 -33 23 -71 25 -85 17
-94 80 -262 146 -391 37 -70 116 -162 174 -203 62 -43 221 -59 321 -32 80 21
183 97 233 171 74 108 209 515 236 708 3 23 8 49 10 57 2 8 6 42 10 75 3 33 8
79 11 102 22 173 25 452 6 583 -10 68 -3 104 21 113 20 7 102 -50 160 -112 91
-98 162 -135 328 -172 127 -28 182 -34 309 -33 180 0 275 13 483 65 155 39
201 57 366 143 251 132 394 242 488 375 26 36 49 68 52 71 59 53 235 277 306
392 17 27 52 78 78 115 48 68 77 122 104 197 14 39 16 48 28 99 16 65 1 243
-25 312 -12 33 -58 73 -110 97 -39 19 -62 22 -170 21 -112 -1 -135 -4 -215
-31 -49 -17 -128 -42 -175 -57 -71 -23 -382 -169 -415 -195 -13 -11 -411 -210
-418 -210 -4 0 9 26 28 58 62 104 111 264 141 467 12 83 10 742 -2 820 -7 39
-15 93 -18 120 -4 28 -9 64 -11 80 -2 17 -7 60 -10 98 -5 63 -68 289 -102 367
-91 209 -202 403 -280 492 -33 36 -53 68 -53 83 0 44 81 181 153 260 149 162
278 377 322 536 39 143 -6 304 -119 426 -64 69 -138 116 -237 149 -117 40
-312 67 -399 57z m-4495 -3923 c3 -5 -1 -10 -10 -10 -9 0 -13 5 -10 10 3 6 8
10 10 10 2 0 7 -4 10 -10z"/>
<path d="M21835 20929 c-77 -9 -124 -25 -200 -70 -38 -23 -92 -54 -119 -69
-118 -66 -173 -129 -211 -245 -39 -115 -45 -200 -35 -500 6 -178 -5 -193 -163
-224 -59 -11 -116 -25 -126 -30 -10 -6 -29 -12 -42 -15 -13 -3 -46 -9 -74 -15
-51 -10 -176 -58 -185 -70 -6 -9 -75 -41 -87 -41 -4 0 -57 -23 -118 -51 -60
-28 -135 -63 -165 -77 -93 -42 -240 -131 -347 -209 -172 -124 -335 -301 -422
-458 -19 -32 -51 -82 -72 -111 -22 -28 -39 -53 -39 -57 0 -3 -23 -45 -52 -94
-72 -123 -168 -311 -168 -328 0 -45 -24 7 -95 203 -84 233 -267 695 -317 802
-56 118 -107 186 -193 256 -65 52 -103 67 -175 67 -102 0 -163 -57 -218 -206
-21 -57 -23 -70 -12 -77 8 -5 11 -13 6 -17 -5 -4 -11 -2 -13 5 -9 23 -19 12
-32 -35 -8 -27 -17 -52 -21 -58 -8 -11 -60 -155 -84 -231 -32 -99 -37 -135
-50 -389 -5 -89 -13 -146 -23 -175 -3 -8 -7 -22 -8 -30 -1 -8 -5 -33 -10 -55
-13 -64 -19 -226 -11 -270 2 -11 7 -42 10 -70 41 -305 168 -609 344 -825 69
-85 287 -295 384 -370 85 -66 197 -123 269 -135 19 -3 50 -10 69 -14 19 -4 61
-7 92 -5 39 2 60 -2 68 -11 14 -17 5 -30 -60 -89 -165 -150 -279 -279 -385
-436 -31 -47 -67 -96 -79 -110 -33 -38 -114 -163 -134 -206 -9 -22 -37 -72
-61 -113 -61 -103 -115 -222 -152 -332 -27 -80 -32 -109 -32 -195 0 -90 3
-108 26 -156 28 -57 118 -154 177 -190 89 -54 246 -64 367 -22 94 32 271 116
402 191 289 166 599 429 791 671 53 67 75 79 100 57 22 -20 30 -73 33 -220 2
-97 6 -118 33 -180 29 -69 126 -222 181 -287 44 -53 166 -171 208 -203 22 -17
42 -33 45 -37 15 -19 241 -162 326 -205 79 -40 292 -117 384 -139 191 -45 378
-61 485 -42 65 12 114 17 220 22 55 3 127 10 160 16 33 6 76 13 95 16 19 3 41
7 49 10 8 2 30 7 50 10 20 3 54 10 76 16 22 6 54 12 70 13 163 17 340 118 433
247 81 111 89 146 62 243 -11 39 -30 66 -92 130 -65 69 -96 92 -195 145 -199
107 -246 127 -425 185 -95 30 -265 85 -378 121 -113 36 -211 68 -218 70 -25 7
-3 21 55 33 111 24 298 128 443 247 145 118 515 498 598 614 33 47 90 121 127
164 155 187 339 654 350 887 2 42 8 86 14 97 19 36 153 76 296 87 134 11 256
25 266 31 4 2 24 6 45 10 80 13 271 86 327 126 81 58 135 129 167 223 27 76
33 217 13 293 -33 124 -143 304 -256 414 -57 57 -78 71 -133 87 -35 11 -73 25
-85 31 -33 18 -156 20 -213 3 -54 -16 -186 -82 -186 -93 0 -4 -38 -27 -85 -51
-96 -49 -98 -49 -109 30 -11 80 -14 96 -51 261 -2 8 -10 44 -19 80 -17 77 -40
224 -39 260 0 14 4 53 8 87 9 71 -3 111 -44 156 -46 51 -62 54 -296 61 -121 4
-231 8 -245 10 -14 2 -54 6 -90 11 -55 6 -103 16 -200 40 -8 2 -19 4 -25 4
-35 4 -38 19 -12 72 105 227 120 451 39 621 -34 73 -125 204 -185 266 -44 45
-142 106 -199 123 -56 16 -141 24 -193 18z"/>
<path d="M4098 20855 c-2 -2 -25 -5 -53 -8 -27 -3 -61 -8 -74 -11 -53 -12
-154 -68 -202 -113 -58 -54 -174 -213 -208 -284 -75 -159 -59 -408 39 -610 16
-34 30 -64 30 -65 0 -5 -105 -33 -180 -48 -98 -19 -298 -33 -565 -39 -99 -2
-123 -13 -165 -74 -30 -44 -38 -87 -27 -153 11 -71 2 -168 -28 -305 -27 -124
-71 -341 -80 -397 -3 -21 -10 -38 -15 -38 -18 0 -138 62 -210 109 -65 42 -113
65 -170 78 -33 8 -127 9 -155 2 -16 -4 -66 -20 -110 -36 -70 -24 -88 -36 -150
-98 -118 -118 -215 -276 -249 -405 -19 -73 -15 -229 9 -295 41 -116 141 -225
242 -263 21 -8 67 -27 103 -43 36 -15 110 -37 165 -48 94 -18 127 -22 300 -37
39 -3 77 -7 85 -9 8 -2 30 -7 48 -10 58 -10 141 -46 157 -68 9 -13 15 -44 15
-80 0 -64 42 -250 89 -397 39 -120 190 -422 237 -475 19 -22 80 -98 133 -170
54 -71 145 -177 202 -236 57 -58 127 -130 155 -160 242 -258 504 -441 706
-494 37 -9 65 -21 62 -26 -3 -5 -11 -9 -18 -9 -7 0 -100 -29 -207 -64 -107
-35 -261 -84 -344 -110 -159 -50 -288 -102 -369 -149 -27 -16 -84 -46 -125
-67 -103 -52 -222 -169 -251 -246 -29 -80 -26 -120 15 -188 19 -32 53 -80 75
-106 78 -93 264 -192 383 -204 23 -2 72 -11 108 -20 116 -27 308 -57 397 -61
109 -6 177 -13 222 -22 83 -17 285 -8 398 18 26 6 56 12 67 15 11 2 58 15 105
30 47 14 112 34 145 44 72 21 177 72 300 148 223 135 404 300 518 470 120 180
138 228 143 392 1 69 5 132 7 140 10 44 20 59 40 62 23 4 41 -11 92 -78 86
-111 321 -341 387 -380 9 -5 37 -27 63 -49 87 -74 219 -164 350 -238 121 -69
323 -167 343 -167 5 0 22 -7 39 -15 81 -40 237 -38 338 5 66 28 170 131 206
205 27 56 30 71 30 151 -1 135 -62 319 -166 498 -29 50 -67 120 -84 155 -32
62 -87 147 -121 186 -10 11 -44 58 -76 105 -124 183 -230 306 -371 428 -74 65
-104 105 -90 119 3 3 48 6 99 8 143 5 270 51 391 143 96 72 307 274 389 372
95 114 192 283 243 420 41 111 88 284 100 365 3 22 9 65 14 95 14 83 5 241
-20 347 -6 27 -13 57 -15 68 -6 28 -13 123 -18 245 -8 180 -34 276 -165 607
-78 195 -104 239 -164 273 -43 25 -121 28 -179 8 -93 -33 -205 -157 -280 -308
-61 -123 -388 -975 -388 -1010 0 -28 -24 1 -43 50 -11 30 -24 60 -28 66 -5 6
-22 35 -37 65 -66 124 -149 268 -183 314 -19 28 -54 82 -77 121 -146 251 -420
484 -757 643 -60 29 -141 68 -180 86 -38 18 -81 36 -95 40 -14 4 -57 24 -95
44 -104 53 -114 57 -255 86 -3 0 -27 8 -55 17 -27 9 -66 19 -86 22 -20 3 -42
8 -50 10 -8 3 -31 8 -53 11 -43 6 -77 40 -88 89 -3 16 -4 73 -2 125 7 126 6
318 -1 356 -29 169 -72 260 -152 322 -47 37 -219 138 -287 169 -43 19 -160 46
-168 39z m3692 -1634 c0 -6 -4 -13 -10 -16 -5 -3 -10 1 -10 9 0 9 5 16 10 16
6 0 10 -4 10 -9z"/>
<path d="M148 13063 c-9 -2 -19 -12 -23 -21 -12 -33 -16 -351 -4 -395 6 -23
13 -82 14 -132 3 -85 7 -124 22 -205 3 -19 7 -43 8 -52 1 -10 4 -20 6 -22 2
-3 48 -6 102 -7 54 -1 115 -8 135 -15 64 -23 65 -22 58 59 -4 39 -9 86 -12
102 -3 17 -6 49 -8 73 l-3 42 91 1 c50 0 107 2 126 4 19 2 64 6 100 9 36 4 86
9 113 12 l47 7 1 -64 c1 -35 0 -125 -1 -199 -5 -308 -3 -404 15 -610 2 -25 6
-90 10 -145 8 -132 16 -252 20 -295 26 -265 26 -1247 0 -1381 -3 -12 -7 -60
-11 -107 -3 -47 -8 -95 -10 -106 -18 -94 -27 -1343 -10 -1441 9 -51 16 -428 9
-476 l-5 -37 -119 -3 c-91 -3 -122 -8 -134 -20 -27 -27 -28 -342 -1 -337 6 1
36 -4 66 -12 53 -13 216 -17 613 -12 75 0 152 1 170 0 44 -1 116 8 124 15 8 8
5 188 -3 235 -4 19 -12 36 -18 38 -13 5 -70 11 -131 13 l-40 1 0 247 c0 137
-4 291 -8 343 -4 52 -11 129 -15 170 -9 104 -7 1361 3 1600 4 107 9 389 10
625 1 237 5 464 9 505 4 41 9 95 12 120 15 159 19 237 19 420 -1 113 -4 259
-9 325 -15 211 -8 439 20 614 2 13 8 27 14 31 14 9 256 3 312 -8 25 -5 62 -9
82 -8 20 1 36 -1 37 -4 0 -3 2 -23 5 -45 11 -97 26 -188 43 -247 16 -57 20
-63 42 -59 13 3 70 5 127 5 56 0 102 3 103 6 0 3 3 14 5 25 3 11 7 43 9 70 2
28 8 73 15 100 6 28 13 59 16 70 2 11 11 54 19 95 21 106 27 235 13 282 -25
84 -145 146 -343 175 -89 13 -349 6 -435 -12 -14 -2 -45 -8 -70 -11 -52 -7
-74 -10 -115 -18 -16 -2 -68 -10 -115 -16 -47 -6 -96 -13 -110 -15 -65 -12
-219 -20 -355 -19 -173 1 -292 25 -378 76 -28 16 -60 32 -71 34 -33 6 -190 12
-208 7z"/>
<path d="M16429 12860 c-282 -50 -564 -191 -745 -374 -119 -120 -196 -233
-232 -341 -18 -52 -59 -258 -77 -380 -4 -22 -8 -47 -10 -55 -2 -8 -7 -42 -11
-75 -3 -33 -8 -69 -10 -80 -7 -32 -18 -262 -18 -350 0 -84 12 -332 19 -400 3
-39 10 -176 21 -430 3 -66 7 -410 8 -765 2 -355 6 -656 9 -670 3 -14 8 -52 11
-85 7 -68 11 -93 33 -225 22 -139 22 -136 70 -310 48 -177 67 -229 133 -366
134 -282 307 -473 495 -549 22 -9 54 -22 70 -30 40 -18 166 -51 241 -65 255
-44 529 -29 744 41 259 86 459 293 584 605 33 85 100 314 90 314 -2 0 0 10 5
23 5 12 12 44 15 70 4 26 11 70 16 96 26 138 29 316 17 951 -6 309 -9 345 -34
463 -14 68 -20 80 -42 89 -42 16 -208 17 -316 1 -73 -11 -204 -15 -485 -17
-344 -1 -392 -3 -448 -20 -54 -16 -91 -44 -77 -57 2 -3 6 -66 9 -141 6 -153
19 -218 48 -245 17 -16 39 -18 157 -18 92 0 161 6 213 18 56 12 105 16 180 12
194 -8 219 -24 244 -154 11 -61 11 -239 0 -290 -10 -45 -45 -216 -50 -246 -3
-16 -10 -55 -16 -85 -6 -30 -13 -73 -16 -95 -13 -112 -73 -370 -110 -481 -57
-171 -200 -322 -364 -387 -36 -14 -83 -28 -105 -32 -47 -7 -159 -8 -195 0 -93
18 -136 32 -217 71 -278 133 -355 344 -378 1030 -2 83 -7 173 -10 200 -3 27
-7 83 -10 124 -4 71 -11 166 -20 290 -25 318 -25 1048 0 1400 2 30 6 222 10
425 3 204 8 402 11 440 13 170 57 297 137 389 42 50 167 148 232 182 182 97
446 114 587 37 134 -73 234 -275 251 -508 9 -117 59 -182 165 -215 72 -22 184
-27 257 -10 73 16 204 84 253 131 46 44 88 117 98 171 10 57 6 191 -9 253 -20
83 -47 142 -90 193 -21 24 -37 48 -37 52 0 14 -88 98 -164 157 -198 154 -426
264 -651 315 -128 29 -345 32 -486 8z"/>
<path d="M12867 11854 c-1 -1 -94 -5 -207 -8 -291 -9 -528 -19 -675 -31 -78
-6 -98 -7 -260 -20 -44 -4 -82 -9 -84 -11 -23 -22 -20 -265 3 -329 l14 -40 60
0 60 0 6 -36 c17 -107 21 -314 20 -1109 -2 -1012 -12 -2436 -18 -2465 -3 -11
-5 -25 -5 -31 -1 -6 -36 -9 -101 -7 -75 2 -100 0 -102 -9 -1 -7 -2 -31 -3 -53
-1 -22 -4 -62 -5 -90 -2 -40 7 -139 16 -177 1 -5 2 -29 3 -55 2 -81 -10 -77
258 -73 131 2 337 2 458 1 582 -8 682 -5 825 24 8 2 23 4 32 4 22 1 60 38 77
76 27 58 18 333 -12 383 -3 4 -7 27 -10 52 -12 95 -21 165 -22 170 -1 3 -5 34
-10 70 -5 36 -9 70 -10 75 -1 6 -3 15 -3 22 -2 12 -40 10 -157 -9 -38 -6 -97
-12 -130 -13 -33 -1 -63 -3 -67 -3 -12 -3 -9 -46 7 -109 9 -32 20 -92 25 -134
5 -41 10 -81 12 -89 2 -12 -28 -14 -177 -15 -184 0 -309 11 -380 36 l-39 14
-5 70 c-7 106 -5 1066 1 1095 4 14 7 48 7 76 1 47 4 53 29 63 61 25 172 39
311 41 80 0 153 2 161 4 8 1 38 6 65 11 74 12 94 22 106 52 29 76 26 320 -4
383 -12 24 -16 25 -103 24 -80 -1 -128 -7 -246 -29 -16 -3 -40 -7 -55 -9 -16
-3 -50 -8 -78 -12 -27 -4 -77 -7 -109 -8 -46 -1 -59 2 -61 15 -4 23 -15 116
-21 184 -4 33 -6 182 -4 330 4 590 3 824 -5 910 -13 136 -12 245 4 297 15 52
4 47 136 64 54 7 266 6 395 -2 58 -3 130 -7 160 -9 l55 -3 1 -98 c1 -127 -1
-121 35 -129 53 -12 353 -3 368 11 8 7 -2 365 -13 454 -3 19 -8 63 -11 98 -8
75 -23 92 -78 93 -23 0 -62 3 -87 5 -43 4 -350 11 -353 8z"/>
<path d="M5406 11843 c-1 -1 -51 -3 -111 -4 -117 -1 -139 -5 -128 -22 4 -6 8
-64 9 -129 2 -65 5 -122 8 -127 4 -5 32 -7 64 -4 31 4 80 7 107 7 57 1 53 12
42 -119 -14 -154 -22 -315 -32 -645 -3 -91 -7 -223 -10 -295 -17 -521 -33
-2638 -22 -2907 2 -66 1 -67 -88 -60 -93 6 -107 5 -116 -10 -8 -12 -3 -83 7
-99 2 -4 4 -33 5 -66 0 -32 3 -66 5 -75 11 -37 108 -42 244 -13 109 23 345 23
434 1 61 -16 70 -16 84 -3 14 15 18 74 8 122 -2 11 -9 47 -16 81 -16 82 -18
84 -67 75 -23 -5 -54 -7 -70 -6 -32 1 -32 1 -18 130 12 122 13 132 20 245 3
58 8 134 10 170 6 100 17 456 19 637 1 90 4 164 7 166 5 4 179 35 249 45 64 9
256 8 318 -1 115 -16 219 -73 246 -135 20 -46 52 -171 61 -235 4 -27 8 -59 11
-70 12 -66 19 -233 18 -477 -2 -398 -4 -450 -23 -450 -32 -1 -166 -12 -168
-14 -7 -6 -17 -121 -18 -187 0 -97 11 -113 74 -105 181 21 319 25 487 12 117
-9 323 -11 330 -3 3 3 1 38 -5 79 -13 83 -20 150 -20 192 l-1 29 -77 -6 -78
-6 0 232 c-1 253 -9 393 -35 602 -35 270 -54 340 -126 452 -64 99 -154 244
-154 247 0 2 36 39 81 82 66 65 89 96 125 169 51 104 85 211 110 351 26 143
25 606 -1 864 -7 69 -15 141 -20 180 -3 19 -7 55 -10 79 -6 47 -10 74 -26 166
-6 33 -13 74 -16 90 -10 66 -66 283 -89 345 -45 118 -90 179 -178 239 -102 70
-326 142 -516 166 -102 13 -933 28 -944 18z m784 -438 c113 -10 277 -58 381
-112 153 -79 202 -175 223 -439 21 -252 34 -588 40 -1039 3 -200 -20 -287 -91
-341 -38 -29 -169 -78 -238 -89 -22 -4 -53 -9 -70 -12 -16 -3 -168 -6 -337 -8
l-308 -3 -1 42 c0 22 -2 49 -4 59 -20 107 -26 737 -11 1297 5 168 9 376 9 463
0 151 1 158 21 162 73 17 108 22 161 24 33 1 61 4 63 6 3 3 38 1 162 -10z"/>
<path d="M19737 11843 c-1 -1 -51 -3 -112 -5 -89 -3 -109 -7 -106 -19 3 -13
10 -149 11 -231 l0 -36 63 6 c100 9 162 8 160 -3 0 -5 -4 -57 -8 -115 -3 -58
-8 -125 -10 -150 -8 -93 -25 -615 -40 -1193 -12 -458 -21 -2291 -12 -2506 l2
-54 -55 -2 c-30 -1 -68 2 -83 6 -17 5 -38 3 -53 -3 -23 -11 -25 -16 -19 -52 4
-23 9 -70 11 -106 3 -36 7 -75 9 -87 9 -41 98 -49 235 -21 130 26 335 28 444
3 94 -21 97 -18 94 69 -1 51 -30 202 -40 212 -2 1 -19 0 -38 -4 -30 -7 -68 -8
-103 -3 -5 1 -6 18 -3 39 3 20 8 61 11 90 3 28 7 73 10 100 4 43 11 141 20
302 6 114 17 490 19 653 1 130 4 158 16 161 15 5 147 30 210 41 79 14 286 14
356 0 143 -27 214 -72 244 -153 25 -65 50 -168 56 -232 3 -25 7 -51 10 -58 21
-67 26 -904 4 -917 -4 -3 -46 -8 -94 -11 -78 -6 -86 -9 -87 -28 0 -12 -3 -30
-5 -41 -11 -47 -12 -177 -2 -205 10 -31 11 -31 67 -25 202 22 300 24 486 10
112 -8 324 -9 332 -1 3 3 -2 52 -11 110 -9 58 -16 124 -16 147 l0 42 -78 -6
-79 -6 1 222 c1 193 -6 370 -18 472 -2 17 -7 57 -11 90 -15 144 -44 311 -61
362 -19 55 -51 113 -119 218 -29 44 -64 101 -79 127 l-27 47 42 38 c61 55 87
83 121 131 79 114 147 326 166 522 13 136 5 636 -13 755 -2 17 -6 57 -9 90 -8
83 -16 155 -21 185 -2 14 -11 72 -20 130 -9 58 -24 134 -32 170 -8 36 -17 74
-19 85 -2 11 -6 32 -10 47 -3 15 -5 29 -5 30 3 9 -60 181 -82 223 -43 85 -131
160 -249 214 -63 28 -269 87 -338 96 -159 20 -321 27 -693 29 -186 0 -339 0
-340 -1z m848 -443 c171 -28 349 -97 424 -166 87 -78 116 -162 136 -389 21
-251 37 -700 38 -1050 0 -287 -46 -346 -318 -407 -78 -18 -132 -21 -407 -23
l-318 -3 -1 32 c-1 17 -3 40 -4 51 -20 164 -27 819 -12 1215 4 113 8 321 9
462 l1 257 56 12 c120 26 269 29 396 9z"/>
<path d="M24727 11783 c-2 -1 -23 -5 -48 -8 -71 -9 -187 -43 -265 -79 -315
-146 -520 -412 -571 -742 -10 -64 -10 -353 1 -427 7 -48 22 -119 40 -187 52
-188 180 -366 406 -560 41 -36 77 -68 80 -71 3 -3 28 -25 55 -49 241 -206 545
-503 660 -645 221 -273 324 -500 330 -724 3 -147 -21 -231 -98 -343 -61 -88
-171 -165 -279 -193 -46 -13 -182 -13 -247 -1 -193 36 -341 154 -341 270 0 35
42 108 102 179 34 39 70 78 79 85 26 18 42 78 35 128 -13 95 -84 182 -192 235
-156 77 -342 33 -490 -115 -93 -94 -128 -165 -128 -261 0 -267 98 -516 271
-690 71 -71 111 -104 185 -154 183 -124 320 -163 548 -157 271 8 446 64 660
210 148 101 242 211 292 341 17 43 52 207 63 290 3 28 11 70 17 95 5 25 12 95
13 155 3 95 0 126 -25 225 -16 63 -40 143 -54 177 -109 264 -432 628 -856 963
-242 192 -575 529 -652 660 -69 119 -93 287 -61 428 45 196 183 406 309 470
108 55 248 63 378 21 164 -53 215 -183 153 -394 -34 -115 -38 -150 -21 -205
19 -65 65 -114 139 -151 55 -27 78 -32 153 -35 174 -7 320 55 397 167 34 48
45 95 45 186 1 93 -20 164 -84 288 -29 55 -69 138 -90 185 -48 108 -71 138
-165 211 -42 33 -84 67 -94 75 -68 55 -248 122 -378 140 -54 7 -267 13 -272 7z"/>
<path d="M4718 11775 c-3 -3 -131 -10 -353 -20 -220 -10 -279 -15 -284 -24 -4
-5 -6 -58 -6 -118 0 -88 4 -115 20 -148 17 -35 25 -40 57 -43 23 -2 42 -10 47
-20 5 -9 12 -78 15 -152 12 -261 16 -336 21 -440 3 -58 7 -166 10 -240 3 -74
7 -184 10 -245 3 -60 7 -182 10 -270 3 -88 8 -209 10 -270 3 -60 7 -198 10
-305 3 -107 8 -217 11 -245 9 -94 12 -680 3 -755 -4 -41 -11 -100 -14 -130 -3
-30 -11 -73 -17 -95 -5 -22 -11 -47 -13 -55 -19 -95 -98 -243 -169 -313 -94
-95 -224 -145 -392 -153 -206 -9 -390 74 -478 216 -57 92 -103 247 -122 415
-3 33 -8 67 -9 76 -2 8 -6 53 -10 100 -3 46 -8 100 -10 119 -2 19 -7 71 -10
115 -4 44 -8 91 -10 105 -5 33 -15 141 -20 210 -2 30 -7 107 -12 170 -16 237
-8 1198 12 1495 5 79 16 211 20 255 2 19 6 78 9 130 8 122 18 255 20 256 0 1
22 4 48 7 73 9 129 29 143 51 16 24 13 105 -7 209 l-14 69 -162 3 c-89 2 -166
6 -170 9 -12 7 -130 17 -216 18 -94 0 -132 -14 -167 -63 -23 -32 -26 -72 -14
-189 2 -19 4 -52 4 -72 l1 -37 63 -3 62 -3 -1 -170 c-2 -160 -6 -321 -19 -635
-6 -135 -7 -169 -22 -460 -9 -199 -9 -689 0 -895 18 -381 30 -564 43 -685 13
-126 15 -146 19 -160 2 -8 7 -37 10 -65 3 -27 8 -63 11 -80 8 -51 24 -139 29
-165 3 -14 8 -41 11 -60 24 -146 54 -222 126 -318 132 -176 337 -331 511 -388
64 -21 86 -23 207 -19 74 2 146 6 160 9 14 2 58 10 99 16 151 25 280 83 420
189 120 92 205 197 282 351 38 77 102 246 113 303 57 276 56 269 75 430 22
183 26 294 25 782 0 541 -10 996 -28 1300 -4 61 -9 149 -11 196 -3 47 -7 108
-9 135 -2 27 -7 87 -11 134 -4 47 -9 94 -11 105 -2 11 -6 63 -9 116 l-6 96 56
6 c31 3 67 13 80 21 26 17 26 12 10 171 -10 91 -16 115 -34 116 -9 0 -24 2
-33 4 -9 2 -18 2 -20 0z"/>
<path d="M7688 11772 l-108 -3 -2 -72 c-9 -260 -2 -436 17 -455 4 -4 55 -7
113 -8 59 -1 121 -4 137 -7 53 -11 60 2 43 72 -13 55 -13 61 1 62 43 3 179 -2
204 -7 31 -6 30 -3 29 -194 0 -58 0 -159 0 -225 3 -3224 2 -3364 -15 -3392 -4
-6 -22 -8 -44 -4 -21 4 -44 6 -50 5 -7 -1 -24 -2 -37 -3 -26 -1 -59 -27 -51
-40 2 -4 7 -41 10 -82 8 -99 14 -132 26 -144 10 -10 187 -11 602 -4 168 3 220
7 226 18 9 15 5 65 -11 126 -6 22 -12 49 -14 60 -11 56 -14 67 -26 92 -16 34
-59 40 -156 23 -44 -7 -67 -8 -71 -1 -10 16 -1 895 23 2341 13 765 17 941 22
1155 7 279 5 255 18 256 6 1 86 3 178 4 l167 3 7 -31 c4 -18 8 -44 9 -59 0
-15 3 -30 7 -33 3 -3 53 -9 111 -12 152 -9 181 8 192 107 8 71 6 192 -3 225
-9 32 -9 54 3 126 4 26 3 49 -2 52 -4 3 -30 8 -58 11 -145 17 -132 16 -425 32
-131 7 -886 11 -1072 6z"/>
<path d="M18657 11724 c-7 -6 -122 -16 -229 -21 -119 -5 -131 -8 -130 -33 0
-12 12 -97 16 -117 2 -11 7 -41 11 -65 l7 -44 64 0 65 1 4 -350 c3 -192 6
-384 9 -425 2 -41 7 -151 11 -245 3 -93 8 -201 10 -240 10 -178 19 -553 18
-785 -1 -372 -17 -1125 -28 -1275 -2 -38 -7 -112 -10 -164 -4 -51 -8 -107 -10
-125 -2 -17 -7 -87 -11 -156 -3 -69 -8 -126 -9 -128 -5 -6 -55 -11 -122 -13
l-62 -2 23 -46 c27 -53 41 -126 45 -234 1 -16 11 -17 110 -13 60 3 119 8 132
11 43 10 91 14 249 21 85 4 166 8 180 9 14 1 51 3 83 3 55 2 57 3 57 30 0 31
-28 170 -39 192 -6 10 -25 15 -67 15 -108 2 -99 -7 -99 98 0 50 -4 144 -9 207
-11 149 -12 338 -2 470 11 134 10 425 -1 605 -4 77 -8 325 -8 550 1 361 4 466
21 680 6 84 15 431 19 795 2 190 6 359 9 375 2 17 4 56 5 88 l1 58 65 -2 c36
-1 68 1 71 4 4 3 -3 37 -14 74 -21 72 -34 126 -37 156 -4 39 -20 42 -211 42
-102 0 -186 -1 -187 -1z"/>
<path d="M9805 11669 c-204 -33 -226 -39 -237 -68 -5 -14 -12 -74 -15 -132 -7
-121 -6 -121 72 -109 28 4 70 11 95 14 l45 6 3 -1238 c3 -1187 7 -1803 17
-2147 15 -552 18 -624 27 -629 2 -1 26 -17 54 -34 43 -27 64 -33 130 -38 104
-7 429 -6 496 1 82 9 130 15 161 21 16 3 38 7 50 9 12 1 47 5 77 9 30 4 118 9
195 11 120 3 234 21 252 38 7 7 6 157 -1 217 -13 97 -22 150 -42 237 -32 140
-58 199 -93 211 -69 24 -321 -10 -321 -44 0 -8 9 -40 19 -72 11 -31 22 -86 25
-122 4 -36 8 -74 9 -85 2 -18 -6 -19 -203 -22 -113 -1 -242 -4 -287 -5 -45 -2
-84 0 -88 3 -7 8 -11 40 -20 169 -3 52 -8 120 -10 150 -19 247 -36 576 -50
945 -2 55 -7 188 -11 295 -10 254 -11 801 -1 960 4 69 10 166 12 215 3 50 7
131 9 180 3 50 8 144 12 210 3 66 8 143 9 170 11 151 19 365 19 475 0 153 -7
169 -92 195 -77 25 -184 26 -317 4z"/>
<path d="M22309 11686 c-2 -3 -31 -7 -64 -11 -33 -3 -67 -8 -75 -10 -8 -3 -33
-7 -55 -10 -108 -15 -137 -26 -150 -59 -11 -29 -18 -89 -18 -166 0 -79 1 -81
31 -76 15 3 50 8 77 11 28 3 64 8 82 11 31 6 31 5 26 -28 -7 -40 -7 -136 1
-1718 3 -685 8 -1328 10 -1430 3 -102 8 -284 11 -405 7 -267 14 -415 21 -426
2 -4 29 -22 59 -39 42 -24 71 -33 118 -36 94 -6 445 -5 502 1 87 9 182 22 227
30 51 10 134 17 253 20 128 3 228 18 252 37 19 15 1 341 -21 377 -3 3 -7 26
-11 51 -10 67 -53 195 -74 221 -17 21 -27 23 -107 23 -93 0 -202 -18 -230 -38
-14 -11 -14 -17 5 -66 12 -30 24 -82 27 -115 3 -33 9 -76 13 -96 l8 -35 -206
-2 c-113 0 -245 -2 -293 -4 -47 -2 -88 -1 -91 2 -3 3 -8 50 -12 105 -3 55 -8
123 -10 150 -4 45 -9 119 -20 290 -7 107 -20 369 -30 620 -34 814 -35 1069
-10 1465 2 25 6 106 9 180 7 137 13 249 21 375 2 39 7 129 11 200 3 72 8 150
9 175 8 110 5 318 -4 342 -12 31 -43 54 -92 69 -35 10 -193 22 -200 15z"/>
<path d="M11742 5922 c-91 -3 -93 -3 -86 -25 4 -12 8 -47 9 -77 2 -30 3 -59 4
-64 0 -4 28 -6 62 -3 l61 5 -6 -47 c-18 -148 -33 -787 -40 -1671 l-1 -175 -43
4 c-53 3 -75 -12 -67 -48 3 -15 7 -44 9 -65 2 -21 10 -43 18 -48 7 -5 50 -6
98 -2 82 6 254 7 314 2 44 -4 52 17 37 102 l-13 72 -40 -6 -40 -7 7 73 c13
126 14 158 21 348 4 102 8 187 11 190 10 11 149 26 221 25 44 -1 100 -9 130
-19 44 -15 57 -24 68 -51 27 -65 43 -169 46 -290 2 -115 -4 -255 -12 -260 -4
-3 -28 -6 -54 -6 -39 -2 -46 -5 -47 -23 0 -12 -2 -39 -5 -61 -3 -22 0 -53 5
-68 11 -28 12 -29 74 -22 60 6 169 6 352 1 50 -2 95 1 101 6 8 6 9 23 2 56 -5
26 -9 63 -10 83 l0 37 -44 -4 -44 -4 1 87 c3 172 -27 400 -62 467 -11 22 -41
66 -65 98 l-45 58 31 27 c47 39 56 49 78 85 25 40 58 138 68 198 8 54 8 286
-1 355 -3 28 -8 67 -10 89 -13 120 -63 323 -94 384 -55 108 -191 166 -438 188
-80 7 -415 11 -561 6z m545 -248 c24 -3 46 -5 50 -6 28 -2 152 -54 171 -72 52
-47 59 -76 77 -346 8 -118 6 -397 -3 -421 -25 -65 -136 -91 -398 -93 l-134 -1
-7 35 c-8 37 -9 421 -3 722 l4 178 40 8 c41 8 128 6 203 -4z"/>
<path d="M16768 5925 c-2 -2 -79 -5 -173 -9 -338 -12 -391 -17 -393 -38 -5
-67 -2 -133 8 -162 10 -32 15 -36 46 -36 31 0 34 -2 36 -32 0 -18 3 -46 4 -63
8 -82 -1 -1588 -10 -1603 -3 -5 -25 -7 -48 -5 -24 2 -48 0 -55 -4 -21 -15 -15
-209 8 -238 11 -15 832 -12 887 4 59 16 76 47 75 128 -1 35 -6 79 -12 96 -5
18 -13 55 -17 82 -4 28 -10 68 -13 90 l-6 40 -50 -1 c-109 -1 -176 -8 -185
-19 -6 -8 -5 -30 4 -66 24 -97 32 -92 -122 -87 -115 4 -137 7 -148 23 -16 22
-15 568 1 584 15 14 54 20 167 22 111 2 176 13 197 34 18 17 24 141 9 189 -10
31 -16 36 -42 37 -56 2 -110 -2 -166 -11 -142 -23 -158 -23 -166 2 -4 13 -9
176 -11 363 -2 187 -4 359 -4 383 -1 50 0 51 32 58 31 6 286 6 318 -1 33 -6
36 -11 33 -49 -6 -60 14 -69 147 -63 64 3 118 6 120 6 6 1 -7 261 -15 299 -4
18 -11 35 -17 39 -10 6 -433 13 -439 8z"/>
<path d="M14090 5882 c-19 -1 -65 -7 -102 -13 l-68 -11 1 -41 c3 -83 11 -101
51 -111 l37 -9 -4 -106 c-2 -58 -7 -432 -10 -831 -4 -399 -8 -745 -10 -770 -2
-25 -3 -62 -4 -82 -1 -35 -4 -38 -41 -48 -35 -9 -67 -40 -55 -51 2 -3 5 -24 6
-47 3 -38 6 -42 28 -43 156 -3 372 2 394 10 31 12 39 26 39 73 1 73 0 78 -29
78 l-28 0 3 407 3 408 25 38 c14 21 28 35 33 33 7 -5 56 -107 299 -626 120
-257 123 -263 110 -272 -7 -4 -18 -6 -25 -4 -14 6 -21 -20 -18 -72 4 -66 8
-68 162 -71 76 -1 178 -3 226 -4 109 -3 121 4 109 58 -5 22 -8 48 -6 57 3 20
-24 31 -78 30 l-39 -1 -52 112 c-29 62 -112 231 -186 377 -334 664 -324 641
-313 665 17 36 151 209 354 455 l194 235 65 0 64 0 2 72 c1 40 -2 75 -7 78
-29 18 -534 25 -551 8 -11 -11 -20 -114 -12 -139 2 -6 18 -10 36 -9 58 4 60
-4 14 -59 -38 -45 -108 -136 -159 -208 -9 -12 -55 -77 -102 -143 -97 -137
-182 -236 -184 -215 -3 50 -2 189 2 208 3 12 6 108 7 212 1 150 4 190 15 190
7 0 24 4 38 9 22 9 24 13 16 43 -5 18 -11 56 -13 83 l-4 50 -99 0 c-54 0 -115
-1 -134 -3z"/>
<path d="M18188 5828 c-3 -126 3 -203 17 -217 15 -15 174 -24 196 -11 7 5 9
18 5 34 -6 25 -5 26 38 24 40 -1 46 -4 50 -27 5 -33 4 -1649 -2 -1713 l-4 -48
-38 0 c-57 0 -68 -17 -59 -86 5 -37 14 -63 25 -71 14 -10 71 -12 247 -8 126 3
233 8 238 11 23 14 -10 157 -39 173 -10 5 -39 8 -66 6 l-48 -3 6 427 c6 438
14 837 21 1091 2 80 4 166 4 193 l1 47 85 0 c83 0 85 0 85 -24 0 -33 6 -35 94
-38 67 -3 78 0 98 20 21 21 23 31 23 138 0 129 8 117 -85 129 -25 3 -235 8
-467 11 l-423 4 -2 -62z"/>
<path d="M10007 5874 c-1 -1 -72 -4 -157 -7 -85 -4 -156 -7 -157 -7 -7 0 -2
-79 7 -111 15 -53 43 -80 90 -86 22 -3 42 -9 45 -12 4 -8 -1 -32 -68 -326 -25
-110 -48 -215 -52 -232 -3 -18 -12 -63 -21 -100 -9 -38 -18 -79 -20 -93 -7
-34 -67 -275 -98 -385 -136 -493 -178 -630 -193 -631 -7 -1 -27 -2 -43 -2
l-30 -2 4 -71 c3 -39 8 -75 13 -80 5 -5 101 -9 213 -10 189 -1 244 2 258 15 7
8 -39 125 -52 133 -6 4 -27 8 -46 8 -19 1 -34 5 -34 10 4 29 97 382 104 394 4
8 16 16 26 18 26 4 182 3 219 -1 17 -2 56 -4 88 -5 60 -1 68 -8 82 -71 2 -8
22 -66 44 -129 23 -63 44 -131 47 -150 3 -20 7 -42 9 -48 2 -7 -1 -14 -8 -14
-7 -1 -19 -3 -27 -4 -8 -1 -21 -3 -27 -4 -9 -1 -11 -19 -7 -68 6 -68 18 -98
35 -87 5 3 44 5 87 4 332 -7 343 -7 350 7 9 15 0 128 -11 139 -4 4 -26 7 -49
6 -38 -2 -45 2 -64 31 -11 17 -48 138 -82 267 -34 129 -75 289 -92 355 -114
436 -151 587 -174 711 -14 76 -28 148 -30 159 -2 12 -7 48 -11 80 -3 33 -8 76
-10 95 -3 19 -7 60 -10 90 -8 77 -21 155 -31 192 -4 12 -19 17 -60 20 -31 1
-56 2 -57 2z m11 -846 c12 -57 28 -146 37 -198 8 -52 25 -137 37 -187 12 -51
18 -96 14 -100 -9 -10 -189 -14 -229 -6 -27 5 -28 8 -22 47 4 22 13 66 21 96
20 74 45 170 50 195 2 11 6 34 10 50 20 104 47 205 53 205 4 0 17 -46 29 -102z"/>
<path d="M7057 5845 c-27 -7 -51 -15 -53 -18 -22 -22 -35 -445 -39 -1262 -2
-368 -4 -673 -4 -676 -1 -4 -19 -9 -42 -12 -22 -3 -43 -8 -46 -11 -4 -3 -1
-23 5 -45 7 -21 12 -50 12 -65 0 -17 7 -29 19 -34 18 -7 211 -7 344 -1 81 4
92 13 95 93 l3 66 -41 -3 c-23 -2 -44 1 -47 6 -7 11 -7 89 1 152 8 63 16 335
18 617 2 189 6 242 14 195 7 -35 220 -524 233 -531 7 -4 124 -10 157 -7 56 3
93 78 195 391 40 124 75 228 79 233 7 8 7 17 14 -584 l6 -476 -41 -7 -42 -7 7
-61 c3 -33 11 -67 17 -75 17 -20 370 -10 436 12 14 5 15 42 1 98 -8 34 -12 37
-42 37 l-34 0 0 183 c1 177 -9 795 -17 1067 -2 74 -6 261 -10 415 -4 154 -9
284 -12 288 -6 10 -144 6 -199 -5 -50 -10 -39 12 -244 -513 -81 -206 -170
-426 -180 -444 -6 -11 -13 -3 -29 30 -15 33 -153 383 -244 619 -55 142 -129
308 -145 327 -24 27 -68 29 -145 8z"/>
<path d="M1766 4932 c-2 -2 -344 -5 -760 -7 -732 -4 -842 -8 -881 -35 -5 -4
-21 -10 -35 -13 -39 -9 -78 -57 -81 -97 -6 -79 28 -110 144 -134 137 -29 220
-31 892 -27 1051 5 1942 5 2320 -3 358 -6 716 -13 1255 -21 168 -3 581 -7 919
-10 l614 -6 93 42 c52 24 94 47 95 53 1 15 1 87 0 111 -1 25 -84 77 -151 96
-32 9 -148 14 -400 15 -954 5 -1956 18 -2345 30 -220 7 -1673 12 -1679 6z"/>
<path d="M21576 4893 c-3 -4 -1204 -15 -1356 -13 -340 4 -355 3 -463 -30 -80
-25 -116 -55 -124 -103 -16 -99 52 -140 267 -164 41 -4 397 -7 790 -6 1362 4
2036 3 2220 -1 165 -4 372 -7 1275 -21 138 -2 513 -7 835 -11 973 -11 912 -12
1000 27 123 56 115 48 114 118 -1 71 -11 84 -93 121 -93 42 -108 43 -646 46
-873 4 -1810 16 -2340 30 -224 6 -1474 12 -1479 7z"/>
</g>
</svg>
